<mxfile host="Electron" modified="2024-02-20T07:18:31.145Z" agent="Mozilla/5.0 (Windows NT 10.0; Win64; x64) AppleWebKit/537.36 (KHTML, like Gecko) draw.io/23.0.2 Chrome/120.0.6099.109 Electron/28.1.0 Safari/537.36" etag="WMRJoHRhNxjy2FxloVOG" version="23.0.2" type="device" pages="2">
  <diagram name="before" id="fAmexbwTzX0MotF7mFoQ">
    <mxGraphModel dx="1022" dy="592" grid="1" gridSize="10" guides="1" tooltips="1" connect="1" arrows="1" fold="1" page="1" pageScale="1" pageWidth="827" pageHeight="1169" math="0" shadow="0">
      <root>
        <mxCell id="0" />
        <mxCell id="1" parent="0" />
        <mxCell id="wd60IBFgmVZrknJt6zr2-11" value="" style="rounded=0;whiteSpace=wrap;html=1;hachureGap=4;fontFamily=Architects Daughter;fontSource=https%3A%2F%2Ffonts.googleapis.com%2Fcss%3Ffamily%3DArchitects%2BDaughter;fontSize=20;fillColor=none;movable=1;resizable=1;rotatable=1;deletable=1;editable=1;locked=0;connectable=1;strokeColor=none;" parent="1" vertex="1">
          <mxGeometry x="10" y="100" width="1170" height="360" as="geometry" />
        </mxCell>
        <mxCell id="uBXY1dNPmYXx2UPunxip-30" value="&lt;p style=&quot;line-height: 200%; font-size: 16px;&quot;&gt;&lt;font color=&quot;#212121&quot; style=&quot;font-size: 16px;&quot;&gt;&lt;b style=&quot;font-size: 16px;&quot;&gt;vkcloud-net&lt;br style=&quot;font-size: 16px;&quot;&gt;&lt;/b&gt;172.17.0.0/24&lt;br style=&quot;font-size: 16px;&quot;&gt;&lt;/font&gt;&lt;/p&gt;" style="rounded=1;whiteSpace=wrap;html=1;fontFamily=VK Sans Display;strokeColor=#6c8ebf;arcsize=12;fillColor=none;spacing=0;spacingTop=12;spacingBottom=12;arcSize=12;absoluteArcSize=1;verticalAlign=top;align=center;dashed=1;strokeWidth=1;fontSize=16;" parent="1" vertex="1">
          <mxGeometry x="110" y="120" width="280" height="320" as="geometry" />
        </mxCell>
        <mxCell id="qh5r2j_JIv6s_1zvjn2D-1" value="" style="shape=image;verticalLabelPosition=bottom;labelBackgroundColor=default;verticalAlign=top;aspect=fixed;imageAspect=0;image=data:image/svg+xml,PHN2ZyB4bWxucz0iaHR0cDovL3d3dy53My5vcmcvMjAwMC9zdmciIGZpbGw9Im5vbmUiIHZpZXdCb3g9IjAgMCAyOCAyOCIgaGVpZ2h0PSIyOCIgd2lkdGg9IjI4Ij4mI3hhOzxwYXRoIGZpbGw9IiMwMDc3RkYiIGQ9Ik0yNS4wODMzIDcuMDcyOTRDMjUuMDgzMyA5LjM2ODM3IDIzLjIyMjUgMTEuMjI5MiAyMC45MjcxIDExLjIyOTJDMjAuMzcwOSAxMS4yMjkyIDE5Ljg0MDIgMTEuMTE5OSAxOS4zNTU0IDEwLjkyMTdDMTkuMDUxNyAxMC43OTc2IDE4LjY5MzQgMTAuODQ5MSAxOC40NzQ3IDExLjA5MzdMMTYuMjgzMSAxMy41NDQ2QzE2LjA0OCAxMy44MDc1IDE2LjA0OCAxNC4yMDUxIDE2LjI4MzEgMTQuNDY4TDE4LjQ2NiAxNi45MDk5QzE4LjY4NSAxNy4xNTQ5IDE5LjA0NDEgMTcuMjA2MiAxOS4zNDgyIDE3LjA4MTNDMTkuODM1IDE2Ljg4MTIgMjAuMzY4MSAxNi43NzA5IDIwLjkyNzEgMTYuNzcwOUMyMy4yMjI1IDE2Ljc3MDkgMjUuMDgzMyAxOC42MzE3IDI1LjA4MzMgMjAuOTI3MUMyNS4wODMzIDIzLjIyMjUgMjMuMjIyNSAyNS4wODM0IDIwLjkyNzEgMjUuMDgzNEMxOC42MzE2IDI1LjA4MzQgMTYuNzcwOCAyMy4yMjI1IDE2Ljc3MDggMjAuOTI3MUMxNi43NzA4IDIwLjMyNzYgMTYuODk3OCAxOS43NTc3IDE3LjEyNjIgMTkuMjQyOUMxNy4yNDk1IDE4Ljk2NSAxNy4yMjM1IDE4LjYzNSAxNy4wMjA2IDE4LjQwODZMMTQuMjA2NSAxNS4yNjk0QzE0LjA3NTEgMTUuMTIyOCAxMy44ODc1IDE1LjAzOTEgMTMuNjkwNyAxNS4wMzkxSDExLjYzNTJDMTEuMzE5MSAxNS4wMzkxIDExLjA0ODggMTUuMjU1OCAxMC45MzA5IDE1LjU0OUMxMC4zMTY3IDE3LjA3NzMgOC44MjA4MyAxOC4xNTYzIDcuMDcyOTEgMTguMTU2M0M0Ljc3NzQ3IDE4LjE1NjMgMi45MTY2NiAxNi4yOTU1IDIuOTE2NjYgMTRDMi45MTY2NiAxMS43MDQ2IDQuNzc3NDcgOS44NDM3NyA3LjA3MjkxIDkuODQzNzdDOC44MjA4MyA5Ljg0Mzc3IDEwLjMxNjcgMTAuOTIyOCAxMC45MzA5IDEyLjQ1MUMxMS4wNDg4IDEyLjc0NDMgMTEuMzE5MSAxMi45NjEgMTEuNjM1MiAxMi45NjFIMTMuNjkxNEMxMy44ODc4IDEyLjk2MSAxNC4wNzUgMTIuODc3NiAxNC4yMDY0IDEyLjczMTVMMTcuMDIzMiA5LjYwMDE4QzE3LjIyNzIgOS4zNzM0MiAxNy4yNTMzIDkuMDQyMTIgMTcuMTI5MSA4Ljc2MzU0QzE2Ljg5ODggOC4yNDcwNSAxNi43NzA4IDcuNjc0OTQgMTYuNzcwOCA3LjA3Mjk0QzE2Ljc3MDggNC43Nzc1IDE4LjYzMTYgMi45MTY2OSAyMC45MjcxIDIuOTE2NjlDMjMuMjIyNSAyLjkxNjY5IDI1LjA4MzMgNC43Nzc1IDI1LjA4MzMgNy4wNzI5NFpNMjMuMDA1MiA3LjA3Mjk0QzIzLjAwNTIgOC4yMjA2NSAyMi4wNzQ4IDkuMTUxMDYgMjAuOTI3MSA5LjE1MTA2QzE5Ljc3OTQgOS4xNTEwNiAxOC44NDg5IDguMjIwNjUgMTguODQ4OSA3LjA3Mjk0QzE4Ljg0ODkgNS45MjUyMiAxOS43Nzk0IDQuOTk0ODEgMjAuOTI3MSA0Ljk5NDgxQzIyLjA3NDggNC45OTQ4MSAyMy4wMDUyIDUuOTI1MjIgMjMuMDA1MiA3LjA3Mjk0Wk05LjE1MTAzIDE0QzkuMTUxMDMgMTUuMTQ3NyA4LjIyMDYyIDE2LjA3ODEgNy4wNzI5MSAxNi4wNzgxQzUuOTI1MTkgMTYuMDc4MSA0Ljk5NDc4IDE1LjE0NzcgNC45OTQ3OCAxNEM0Ljk5NDc4IDEyLjg1MjMgNS45MjUxOSAxMS45MjE5IDcuMDcyOTEgMTEuOTIxOUM4LjIyMDYyIDExLjkyMTkgOS4xNTEwMyAxMi44NTIzIDkuMTUxMDMgMTRaTTIwLjkyNzEgMjMuMDA1MkMyMi4wNzQ4IDIzLjAwNTIgMjMuMDA1MiAyMi4wNzQ4IDIzLjAwNTIgMjAuOTI3MUMyMy4wMDUyIDE5Ljc3OTQgMjIuMDc0OCAxOC44NDkgMjAuOTI3MSAxOC44NDlDMTkuNzc5NCAxOC44NDkgMTguODQ4OSAxOS43Nzk0IDE4Ljg0ODkgMjAuOTI3MUMxOC44NDg5IDIyLjA3NDggMTkuNzc5NCAyMy4wMDUyIDIwLjkyNzEgMjMuMDA1MloiIGNsaXAtcnVsZT0iZXZlbm9kZCIgZmlsbC1ydWxlPSJldmVub2RkIi8+JiN4YTs8L3N2Zz4=;" parent="1" vertex="1">
          <mxGeometry x="330" y="128" width="40" height="40" as="geometry" />
        </mxCell>
        <mxCell id="qh5r2j_JIv6s_1zvjn2D-5" value="&lt;p style=&quot;line-height: 200%; font-size: 16px;&quot;&gt;&lt;font color=&quot;#212121&quot; style=&quot;font-size: 16px;&quot;&gt;&lt;b style=&quot;font-size: 16px;&quot;&gt;customer-net&lt;br style=&quot;font-size: 16px;&quot;&gt;&lt;/b&gt;10.0.0.0/24&lt;br style=&quot;font-size: 16px;&quot;&gt;&lt;/font&gt;&lt;/p&gt;" style="rounded=1;whiteSpace=wrap;html=1;fontFamily=VK Sans Display;strokeColor=#666666;arcsize=12;fillColor=none;spacing=0;spacingTop=12;spacingBottom=12;arcSize=12;absoluteArcSize=1;verticalAlign=top;fontColor=#333333;dashed=1;fontSize=16;" parent="1" vertex="1">
          <mxGeometry x="880" y="120" width="280" height="320" as="geometry" />
        </mxCell>
        <mxCell id="qh5r2j_JIv6s_1zvjn2D-9" value="&lt;p style=&quot;line-height: 200%; font-size: 16px;&quot;&gt;&lt;font style=&quot;font-size: 16px;&quot; color=&quot;#212121&quot;&gt;&lt;b&gt;x-net&lt;br&gt;&lt;/b&gt;172.20.2.0/24&lt;br&gt;&lt;/font&gt;&lt;/p&gt;" style="rounded=1;whiteSpace=wrap;html=1;fontFamily=VK Sans Display;strokeColor=none;arcsize=12;fillColor=#87D6E8;spacing=0;spacingTop=12;spacingBottom=12;arcSize=12;absoluteArcSize=1;dashed=1;" parent="1" vertex="1">
          <mxGeometry x="410" y="260" width="450" height="80" as="geometry" />
        </mxCell>
        <mxCell id="wd60IBFgmVZrknJt6zr2-39" style="edgeStyle=orthogonalEdgeStyle;shape=connector;rounded=0;hachureGap=4;orthogonalLoop=1;jettySize=auto;html=1;labelBackgroundColor=default;strokeColor=#7C8A9A;strokeWidth=2;fontFamily=Architects Daughter;fontSource=https%3A%2F%2Ffonts.googleapis.com%2Fcss%3Ffamily%3DArchitects%2BDaughter;fontSize=16;fontColor=default;startArrow=oval;startFill=1;endArrow=oval;endFill=1;" parent="1" source="wd60IBFgmVZrknJt6zr2-1" edge="1">
          <mxGeometry relative="1" as="geometry">
            <mxPoint x="160" y="263" as="targetPoint" />
          </mxGeometry>
        </mxCell>
        <mxCell id="wd60IBFgmVZrknJt6zr2-1" value="172.17.0.8" style="shape=image;verticalLabelPosition=bottom;labelBackgroundColor=default;verticalAlign=top;aspect=fixed;imageAspect=0;image=data:image/svg+xml,PHN2ZyB4bWxucz0iaHR0cDovL3d3dy53My5vcmcvMjAwMC9zdmciIGZpbGw9Im5vbmUiIHZpZXdCb3g9IjAgMCAyOCAyOCIgaGVpZ2h0PSIyOCIgd2lkdGg9IjI4Ij4mI3hhOzxwYXRoIGZpbGw9IiMwMDc3RkYiIGQ9Ik0yLjkxNjY2IDE0QzIuOTE2NjYgOC43NzUyNiAyLjkxNjY2IDYuMTYyODkgNC41Mzk3NyA0LjUzOTc3QzYuMTYyODkgMi45MTY2NiA4Ljc3NTI2IDIuOTE2NjYgMTQgMi45MTY2NkMxOS4yMjQ3IDIuOTE2NjYgMjEuODM3MSAyLjkxNjY2IDIzLjQ2MDIgNC41Mzk3N0MyNS4wODMzIDYuMTYyODkgMjUuMDgzMyA4Ljc3NTI2IDI1LjA4MzMgMTRDMjUuMDgzMyAxNS4xNjI2IDI1LjA2MDIgMTYuNDc3NiAyNS4wMzA4IDE3LjUzOThDMjUuMDE1OSAxOC4wNzU5IDI0LjU3NTYgMTguNSAyNC4wMzkzIDE4LjVDMjMuNDczMyAxOC41IDIzLjAxNDkgMTguMDI5MiAyMy4wMTIxIDE3LjQ2MzFDMjMuMDExMSAxNy4yNTUxIDIzLjAwOTIgMTcuMDM4NiAyMy4wMDczIDE2LjgyM0MyMy4wMDQgMTYuNDM5MiAyMy4wMDA3IDE2LjA1ODMgMjMuMDAyMyAxNS43MzM0QzIzLjAwNDIgMTUuMzUwMyAyMi42OTM2IDE1LjAzOTEgMjIuMzEwNiAxNS4wMzkxSDUuNjg5MzlDNS4zMDYzNCAxNS4wMzkxIDQuOTk1NzcgMTUuMzUwMyA0Ljk5NzY4IDE1LjczMzRDNS4wMDY0MiAxNy40ODQzIDUuMDQxMjIgMTguNzc4IDUuMTc5MTQgMTkuODAzOEM1LjM1MTA1IDIxLjA4MjQgNS42NDgxNCAyMS42Mjk3IDYuMDA5MjMgMjEuOTkwN0M2LjM3MDMxIDIyLjM1MTggNi45MTc1NSAyMi42NDg5IDguMTk2MTggMjIuODIwOEM4LjQ0NzY1IDIyLjg1NDYgOC43MTUyMSAyMi44ODIzIDkuMDAxNjUgMjIuOTA0OEM5LjU1ODQxIDIyLjk0ODYgMTAgMjMuNDAzMSAxMCAyMy45NjE2QzEwIDI0LjU1MTEgOS41MDk0IDI1LjAyNjQgOC45MjE1IDI0Ljk4MjZDNi44NjE1MyAyNC44Mjg4IDUuNTIwMTggMjQuNDQwNiA0LjUzOTc3IDIzLjQ2MDJDMi45MTY2NiAyMS44MzcxIDIuOTE2NjYgMTkuMjI0NyAyLjkxNjY2IDE0Wk0yMy4wMDIzIDEyLjI2NjZDMjMuMDA0MiAxMi42NDk2IDIyLjY5MzYgMTIuOTYwOSAyMi4zMTA2IDEyLjk2MDlINS42ODkzOUM1LjMwNjM0IDEyLjk2MDkgNC45OTU3NyAxMi42NDk2IDQuOTk3NjggMTIuMjY2NkM1LjAwNjQyIDEwLjUxNTYgNS4wNDEyMiA5LjIyMjAxIDUuMTc5MTQgOC4xOTYxOEM1LjM1MTA1IDYuOTE3NTUgNS42NDgxNCA2LjM3MDMxIDYuMDA5MjMgNi4wMDkyM0M2LjM3MDMxIDUuNjQ4MTQgNi45MTc1NSA1LjM1MTA1IDguMTk2MTggNS4xNzkxNEM5LjUzNDU5IDQuOTk5MiAxMS4zMjg5IDQuOTk0NzggMTQgNC45OTQ3OEMxNi42NzExIDQuOTk0NzggMTguNDY1NCA0Ljk5OTIgMTkuODAzOCA1LjE3OTE0QzIxLjA4MjQgNS4zNTEwNSAyMS42Mjk3IDUuNjQ4MTQgMjEuOTkwNyA2LjAwOTIzQzIyLjM1MTggNi4zNzAzMSAyMi42NDg5IDYuOTE3NTUgMjIuODIwOCA4LjE5NjE4QzIyLjk1ODggOS4yMjIwMSAyMi45OTM2IDEwLjUxNTYgMjMuMDAyMyAxMi4yNjY2Wk0xNS4xMjQgMjQuNjU4N0wxNi45MTQyIDIwLjQ0MjlDMTYuOTcyNSAyMC4zMTE2IDE3LjA2NzcgMjAuMTUwNSAxNy4yMzIzIDIwLjA0OTZDMTcuMzgzMiAxOS45NTUxIDE3LjU1MTMgMTkuOTI2MyAxNy43MDMyIDE5LjkyNjNDMTcuODM4OCAxOS45MjYzIDE3Ljk4NCAxOS45NTEgMTguMTE5NCAyMC4wMjM3QzE4LjI1NTkgMjAuMDk2OSAxOC4zNTkyIDIwLjIwNjYgMTguNDI3NCAyMC4zMzgxQzE4LjU2OTkgMjAuNTk1MyAxOC41NTExIDIwLjg3MSAxOC40NDA4IDIxLjExM0wxNS45MjI3IDI2Ljg4OTJDMTUuODU4NCAyNy4wMzYxIDE1Ljc2MjEgMjcuMTcwNSAxNS42MjYyIDI3LjI3MjRMMTUuNjIxMiAyNy4yNzYxQzE1LjQ2OTYgMjcuMzg2NCAxNS4yOTYyIDI3LjQyNTYgMTUuMTMyNSAyNy40MjU2QzE0Ljk2NDYgMjcuNDI1NiAxNC43OTgxIDI3LjM4MDkgMTQuNjUxNyAyNy4yNzgxQzE0LjUwODYgMjcuMTc3NiAxNC40MTA4IDI3LjA0MDEgMTQuMzQ1IDI2Ljg5NTJMMTQuMzQyNCAyNi44ODk2TDExLjg0NDcgMjEuMTc4QzExLjc0MTggMjAuOTI4MiAxMS42OTIxIDIwLjYyOSAxMS44MzIxIDIwLjM0ODhDMTEuOTg2NiAyMC4wMzk5IDEyLjI4MzMgMTkuOTI2MyAxMi41NzAzIDE5LjkyNjNDMTIuNzMzIDE5LjkyNjMgMTIuOTAxNCAxOS45NjI4IDEzLjA1MjMgMjAuMDYwNEMxMy4yMDQ1IDIwLjE1ODYgMTMuMzA3MyAyMC4yOTg0IDEzLjM3MTQgMjAuNDUxMkwxMy4zNzE4IDIwLjQ1MjFMMTUuMTI0IDI0LjY1ODdaTTIxLjI4OTUgMjQuMjEwMVYyNi41NTc0QzIxLjI4OTUgMjYuNzkwNCAyMS4yMDUzIDI3LjAwNTEgMjEuMDM3MSAyNy4xNzMzQzIwLjg2ODkgMjcuMzQxNSAyMC42NTQzIDI3LjQyNTYgMjAuNDIxMiAyNy40MjU2QzIwLjE4ODIgMjcuNDI1NiAxOS45NzM1IDI3LjM0MTUgMTkuODA1MyAyNy4xNzMzQzE5LjYzNzEgMjcuMDA1MSAxOS41NTMgMjYuNzkwNCAxOS41NTMgMjYuNTU3NFYyMC43OTQ2QzE5LjU1MyAyMC41NjQxIDE5LjYzMiAyMC4zNDMgMTkuODEwNCAyMC4xNzM1QzE5Ljk3NzkgMjAuMDA4OCAyMC4xOTA1IDE5LjkyNjMgMjAuNDIxMiAxOS45MjYzQzIwLjc1NzcgMTkuOTI2MyAyMS4wMjI3IDIwLjA5OTcgMjEuMTgyMyAyMC4zNzkxTDIxLjE4ODIgMjAuMzg5NUwyMy4zMzQyIDI0LjY4ODNMMjUuNDI0NCAyMC4zOTE0TDI1LjQzMTQgMjAuMzc5MUMyNS41OTExIDIwLjA5OTcgMjUuODU2MSAxOS45MjYzIDI2LjE5MjUgMTkuOTI2M0MyNi40MjMyIDE5LjkyNjMgMjYuNjM1OSAyMC4wMDg4IDI2LjgwMzMgMjAuMTczNkMyNi45ODE4IDIwLjM0MyAyNy4wNjA4IDIwLjU2NDEgMjcuMDYwOCAyMC43OTQ2VjI2LjU1NzRDMjcuMDYwOCAyNi43OTcxIDI2Ljk2ODggMjcuMDEyOCAyNi43OTUxIDI3LjE3ODFDMjYuNjMxOCAyNy4zMzkgMjYuNDIzNiAyNy40MjU2IDI2LjE5MjUgMjcuNDI1NkMyNS45NTk1IDI3LjQyNTYgMjUuNzQ0OCAyNy4zNDE1IDI1LjU3NjYgMjcuMTczM0MyNS40MDg0IDI3LjAwNTEgMjUuMzI0MyAyNi43OTA0IDI1LjMyNDMgMjYuNTU3NFYyNC4xNTg1TDI0LjA2MDUgMjYuNzM0M0wyNC4wNDYyIDI2Ljc1NjJDMjMuODgxMiAyNy4wMDg1IDIzLjYyNzEgMjcuMTcwMiAyMy4zMDY5IDI3LjE3MDJDMjMuMTQ0MyAyNy4xNzAyIDIyLjk4MDQgMjcuMTMxMiAyMi44MzM0IDI3LjAzNjJDMjIuNjg4MyAyNi45NDI1IDIyLjU4NiAyNi44MTE1IDIyLjUxNjUgMjYuNjY4OEwyMS4yODk1IDI0LjIxMDFaIiBjbGlwLXJ1bGU9ImV2ZW5vZGQiIGZpbGwtcnVsZT0iZXZlbm9kZCIvPiYjeGE7PC9zdmc+;fontSize=16;strokeWidth=0;fontFamily=VK Sans Display;fontSource=https%3A%2F%2Ffonts.googleapis.com%2Fcss%3Ffamily%3DArchitects%2BDaughter;" parent="1" vertex="1">
          <mxGeometry x="140" y="340" width="40" height="40" as="geometry" />
        </mxCell>
        <mxCell id="wd60IBFgmVZrknJt6zr2-27" style="edgeStyle=orthogonalEdgeStyle;shape=connector;rounded=0;hachureGap=4;orthogonalLoop=1;jettySize=auto;html=1;exitX=0;exitY=0.5;exitDx=0;exitDy=0;entryX=1;entryY=0.5;entryDx=0;entryDy=0;labelBackgroundColor=default;strokeColor=#7C8A9A;strokeWidth=2;fontFamily=Architects Daughter;fontSource=https%3A%2F%2Ffonts.googleapis.com%2Fcss%3Ffamily%3DArchitects%2BDaughter;fontSize=16;fontColor=default;startArrow=oval;startFill=1;endArrow=oval;endFill=1;" parent="1" target="wd60IBFgmVZrknJt6zr2-13" edge="1">
          <mxGeometry relative="1" as="geometry">
            <mxPoint x="138" y="240" as="sourcePoint" />
          </mxGeometry>
        </mxCell>
        <mxCell id="wd60IBFgmVZrknJt6zr2-5" value="10.0.0.5" style="shape=image;verticalLabelPosition=bottom;labelBackgroundColor=default;verticalAlign=top;aspect=fixed;imageAspect=0;image=data:image/svg+xml,PHN2ZyB4bWxucz0iaHR0cDovL3d3dy53My5vcmcvMjAwMC9zdmciIGZpbGw9Im5vbmUiIHZpZXdCb3g9IjAgMCAyOCAyOCIgaGVpZ2h0PSIyOCIgd2lkdGg9IjI4Ij4mI3hhOzxwYXRoIGZpbGw9IiMzMzMzMzMiIGQ9Ik0yLjkxNjY2IDE0QzIuOTE2NjYgOC43NzUyNiAyLjkxNjY2IDYuMTYyODkgNC41Mzk3NyA0LjUzOTc3QzYuMTYyODkgMi45MTY2NiA4Ljc3NTI2IDIuOTE2NjYgMTQgMi45MTY2NkMxOS4yMjQ3IDIuOTE2NjYgMjEuODM3MSAyLjkxNjY2IDIzLjQ2MDIgNC41Mzk3N0MyNS4wODMzIDYuMTYyODkgMjUuMDgzMyA4Ljc3NTI2IDI1LjA4MzMgMTRDMjUuMDgzMyAxNS4xNjI2IDI1LjA2MDIgMTYuNDc3NiAyNS4wMzA4IDE3LjUzOThDMjUuMDE1OSAxOC4wNzU5IDI0LjU3NTYgMTguNSAyNC4wMzkzIDE4LjVDMjMuNDczMyAxOC41IDIzLjAxNDkgMTguMDI5MiAyMy4wMTIxIDE3LjQ2MzFDMjMuMDExMSAxNy4yNTUxIDIzLjAwOTIgMTcuMDM4NiAyMy4wMDczIDE2LjgyM0MyMy4wMDQgMTYuNDM5MiAyMy4wMDA3IDE2LjA1ODMgMjMuMDAyMyAxNS43MzM0QzIzLjAwNDIgMTUuMzUwMyAyMi42OTM2IDE1LjAzOTEgMjIuMzEwNiAxNS4wMzkxSDUuNjg5MzlDNS4zMDYzNCAxNS4wMzkxIDQuOTk1NzcgMTUuMzUwMyA0Ljk5NzY4IDE1LjczMzRDNS4wMDY0MiAxNy40ODQzIDUuMDQxMjIgMTguNzc4IDUuMTc5MTQgMTkuODAzOEM1LjM1MTA1IDIxLjA4MjQgNS42NDgxNCAyMS42Mjk3IDYuMDA5MjMgMjEuOTkwN0M2LjM3MDMxIDIyLjM1MTggNi45MTc1NSAyMi42NDg5IDguMTk2MTggMjIuODIwOEM4LjQ0NzY1IDIyLjg1NDYgOC43MTUyMSAyMi44ODIzIDkuMDAxNjUgMjIuOTA0OEM5LjU1ODQxIDIyLjk0ODYgMTAgMjMuNDAzMSAxMCAyMy45NjE2QzEwIDI0LjU1MTEgOS41MDk0IDI1LjAyNjQgOC45MjE1IDI0Ljk4MjZDNi44NjE1MyAyNC44Mjg4IDUuNTIwMTggMjQuNDQwNiA0LjUzOTc3IDIzLjQ2MDJDMi45MTY2NiAyMS44MzcxIDIuOTE2NjYgMTkuMjI0NyAyLjkxNjY2IDE0Wk0yMy4wMDIzIDEyLjI2NjZDMjMuMDA0MiAxMi42NDk2IDIyLjY5MzYgMTIuOTYwOSAyMi4zMTA2IDEyLjk2MDlINS42ODkzOUM1LjMwNjM0IDEyLjk2MDkgNC45OTU3NyAxMi42NDk2IDQuOTk3NjggMTIuMjY2NkM1LjAwNjQyIDEwLjUxNTYgNS4wNDEyMiA5LjIyMjAxIDUuMTc5MTQgOC4xOTYxOEM1LjM1MTA1IDYuOTE3NTUgNS42NDgxNCA2LjM3MDMxIDYuMDA5MjMgNi4wMDkyM0M2LjM3MDMxIDUuNjQ4MTQgNi45MTc1NSA1LjM1MTA1IDguMTk2MTggNS4xNzkxNEM5LjUzNDU5IDQuOTk5MiAxMS4zMjg5IDQuOTk0NzggMTQgNC45OTQ3OEMxNi42NzExIDQuOTk0NzggMTguNDY1NCA0Ljk5OTIgMTkuODAzOCA1LjE3OTE0QzIxLjA4MjQgNS4zNTEwNSAyMS42Mjk3IDUuNjQ4MTQgMjEuOTkwNyA2LjAwOTIzQzIyLjM1MTggNi4zNzAzMSAyMi42NDg5IDYuOTE3NTUgMjIuODIwOCA4LjE5NjE4QzIyLjk1ODggOS4yMjIwMSAyMi45OTM2IDEwLjUxNTYgMjMuMDAyMyAxMi4yNjY2Wk0xNS4xMjQgMjQuNjU4N0wxNi45MTQyIDIwLjQ0MjlDMTYuOTcyNSAyMC4zMTE2IDE3LjA2NzcgMjAuMTUwNSAxNy4yMzIzIDIwLjA0OTZDMTcuMzgzMiAxOS45NTUxIDE3LjU1MTMgMTkuOTI2MyAxNy43MDMyIDE5LjkyNjNDMTcuODM4OCAxOS45MjYzIDE3Ljk4NCAxOS45NTEgMTguMTE5NCAyMC4wMjM3QzE4LjI1NTkgMjAuMDk2OSAxOC4zNTkyIDIwLjIwNjYgMTguNDI3NCAyMC4zMzgxQzE4LjU2OTkgMjAuNTk1MyAxOC41NTExIDIwLjg3MSAxOC40NDA4IDIxLjExM0wxNS45MjI3IDI2Ljg4OTJDMTUuODU4NCAyNy4wMzYxIDE1Ljc2MjEgMjcuMTcwNSAxNS42MjYyIDI3LjI3MjRMMTUuNjIxMiAyNy4yNzYxQzE1LjQ2OTYgMjcuMzg2NCAxNS4yOTYyIDI3LjQyNTYgMTUuMTMyNSAyNy40MjU2QzE0Ljk2NDYgMjcuNDI1NiAxNC43OTgxIDI3LjM4MDkgMTQuNjUxNyAyNy4yNzgxQzE0LjUwODYgMjcuMTc3NiAxNC40MTA4IDI3LjA0MDEgMTQuMzQ1IDI2Ljg5NTJMMTQuMzQyNCAyNi44ODk2TDExLjg0NDcgMjEuMTc4QzExLjc0MTggMjAuOTI4MiAxMS42OTIxIDIwLjYyOSAxMS44MzIxIDIwLjM0ODhDMTEuOTg2NiAyMC4wMzk5IDEyLjI4MzMgMTkuOTI2MyAxMi41NzAzIDE5LjkyNjNDMTIuNzMzIDE5LjkyNjMgMTIuOTAxNCAxOS45NjI4IDEzLjA1MjMgMjAuMDYwNEMxMy4yMDQ1IDIwLjE1ODYgMTMuMzA3MyAyMC4yOTg0IDEzLjM3MTQgMjAuNDUxMkwxMy4zNzE4IDIwLjQ1MjFMMTUuMTI0IDI0LjY1ODdaTTIxLjI4OTUgMjQuMjEwMVYyNi41NTc0QzIxLjI4OTUgMjYuNzkwNCAyMS4yMDUzIDI3LjAwNTEgMjEuMDM3MSAyNy4xNzMzQzIwLjg2ODkgMjcuMzQxNSAyMC42NTQzIDI3LjQyNTYgMjAuNDIxMiAyNy40MjU2QzIwLjE4ODIgMjcuNDI1NiAxOS45NzM1IDI3LjM0MTUgMTkuODA1MyAyNy4xNzMzQzE5LjYzNzEgMjcuMDA1MSAxOS41NTMgMjYuNzkwNCAxOS41NTMgMjYuNTU3NFYyMC43OTQ2QzE5LjU1MyAyMC41NjQxIDE5LjYzMiAyMC4zNDMgMTkuODEwNCAyMC4xNzM1QzE5Ljk3NzkgMjAuMDA4OCAyMC4xOTA1IDE5LjkyNjMgMjAuNDIxMiAxOS45MjYzQzIwLjc1NzcgMTkuOTI2MyAyMS4wMjI3IDIwLjA5OTcgMjEuMTgyMyAyMC4zNzkxTDIxLjE4ODIgMjAuMzg5NUwyMy4zMzQyIDI0LjY4ODNMMjUuNDI0NCAyMC4zOTE0TDI1LjQzMTQgMjAuMzc5MUMyNS41OTExIDIwLjA5OTcgMjUuODU2MSAxOS45MjYzIDI2LjE5MjUgMTkuOTI2M0MyNi40MjMyIDE5LjkyNjMgMjYuNjM1OSAyMC4wMDg4IDI2LjgwMzMgMjAuMTczNkMyNi45ODE4IDIwLjM0MyAyNy4wNjA4IDIwLjU2NDEgMjcuMDYwOCAyMC43OTQ2VjI2LjU1NzRDMjcuMDYwOCAyNi43OTcxIDI2Ljk2ODggMjcuMDEyOCAyNi43OTUxIDI3LjE3ODFDMjYuNjMxOCAyNy4zMzkgMjYuNDIzNiAyNy40MjU2IDI2LjE5MjUgMjcuNDI1NkMyNS45NTk1IDI3LjQyNTYgMjUuNzQ0OCAyNy4zNDE1IDI1LjU3NjYgMjcuMTczM0MyNS40MDg0IDI3LjAwNTEgMjUuMzI0MyAyNi43OTA0IDI1LjMyNDMgMjYuNTU3NFYyNC4xNTg1TDI0LjA2MDUgMjYuNzM0M0wyNC4wNDYyIDI2Ljc1NjJDMjMuODgxMiAyNy4wMDg1IDIzLjYyNzEgMjcuMTcwMiAyMy4zMDY5IDI3LjE3MDJDMjMuMTQ0MyAyNy4xNzAyIDIyLjk4MDQgMjcuMTMxMiAyMi44MzM0IDI3LjAzNjJDMjIuNjg4MyAyNi45NDI1IDIyLjU4NiAyNi44MTE1IDIyLjUxNjUgMjYuNjY4OEwyMS4yODk1IDI0LjIxMDFaIiBjbGlwLXJ1bGU9ImV2ZW5vZGQiIGZpbGwtcnVsZT0iZXZlbm9kZCIvPiYjeGE7PC9zdmc+;fontFamily=VK Sans Display;fontSource=https%3A%2F%2Ffonts.googleapis.com%2Fcss%3Ffamily%3DArchitects%2BDaughter;fontSize=16;" parent="1" vertex="1">
          <mxGeometry x="1090" y="339" width="40" height="40" as="geometry" />
        </mxCell>
        <mxCell id="wd60IBFgmVZrknJt6zr2-7" value="" style="shape=image;verticalLabelPosition=bottom;labelBackgroundColor=default;verticalAlign=top;aspect=fixed;imageAspect=0;image=data:image/svg+xml,PHN2ZyB4bWxucz0iaHR0cDovL3d3dy53My5vcmcvMjAwMC9zdmciIGZpbGw9Im5vbmUiIHZpZXdCb3g9IjAgMCAyOCAyOCIgaGVpZ2h0PSIyOCIgd2lkdGg9IjI4Ij4mI3hhOzxwYXRoIGZpbGw9IiMzMzMzMzMiIGQ9Ik0yNS4wODMzIDcuMDcyOTRDMjUuMDgzMyA5LjM2ODM3IDIzLjIyMjUgMTEuMjI5MiAyMC45MjcxIDExLjIyOTJDMjAuMzcwOSAxMS4yMjkyIDE5Ljg0MDIgMTEuMTE5OSAxOS4zNTU0IDEwLjkyMTdDMTkuMDUxNyAxMC43OTc2IDE4LjY5MzQgMTAuODQ5MSAxOC40NzQ3IDExLjA5MzdMMTYuMjgzMSAxMy41NDQ2QzE2LjA0OCAxMy44MDc1IDE2LjA0OCAxNC4yMDUxIDE2LjI4MzEgMTQuNDY4TDE4LjQ2NiAxNi45MDk5QzE4LjY4NSAxNy4xNTQ5IDE5LjA0NDEgMTcuMjA2MiAxOS4zNDgyIDE3LjA4MTNDMTkuODM1IDE2Ljg4MTIgMjAuMzY4MSAxNi43NzA5IDIwLjkyNzEgMTYuNzcwOUMyMy4yMjI1IDE2Ljc3MDkgMjUuMDgzMyAxOC42MzE3IDI1LjA4MzMgMjAuOTI3MUMyNS4wODMzIDIzLjIyMjUgMjMuMjIyNSAyNS4wODM0IDIwLjkyNzEgMjUuMDgzNEMxOC42MzE2IDI1LjA4MzQgMTYuNzcwOCAyMy4yMjI1IDE2Ljc3MDggMjAuOTI3MUMxNi43NzA4IDIwLjMyNzYgMTYuODk3OCAxOS43NTc3IDE3LjEyNjIgMTkuMjQyOUMxNy4yNDk1IDE4Ljk2NSAxNy4yMjM1IDE4LjYzNSAxNy4wMjA2IDE4LjQwODZMMTQuMjA2NSAxNS4yNjk0QzE0LjA3NTEgMTUuMTIyOCAxMy44ODc1IDE1LjAzOTEgMTMuNjkwNyAxNS4wMzkxSDExLjYzNTJDMTEuMzE5MSAxNS4wMzkxIDExLjA0ODggMTUuMjU1OCAxMC45MzA5IDE1LjU0OUMxMC4zMTY3IDE3LjA3NzMgOC44MjA4MyAxOC4xNTYzIDcuMDcyOTEgMTguMTU2M0M0Ljc3NzQ3IDE4LjE1NjMgMi45MTY2NiAxNi4yOTU1IDIuOTE2NjYgMTRDMi45MTY2NiAxMS43MDQ2IDQuNzc3NDcgOS44NDM3NyA3LjA3MjkxIDkuODQzNzdDOC44MjA4MyA5Ljg0Mzc3IDEwLjMxNjcgMTAuOTIyOCAxMC45MzA5IDEyLjQ1MUMxMS4wNDg4IDEyLjc0NDMgMTEuMzE5MSAxMi45NjEgMTEuNjM1MiAxMi45NjFIMTMuNjkxNEMxMy44ODc4IDEyLjk2MSAxNC4wNzUgMTIuODc3NiAxNC4yMDY0IDEyLjczMTVMMTcuMDIzMiA5LjYwMDE5QzE3LjIyNzIgOS4zNzM0MiAxNy4yNTMzIDkuMDQyMTIgMTcuMTI5MSA4Ljc2MzU0QzE2Ljg5ODggOC4yNDcwNSAxNi43NzA4IDcuNjc0OTQgMTYuNzcwOCA3LjA3Mjk0QzE2Ljc3MDggNC43Nzc1IDE4LjYzMTYgMi45MTY2OSAyMC45MjcxIDIuOTE2NjlDMjMuMjIyNSAyLjkxNjY5IDI1LjA4MzMgNC43Nzc1IDI1LjA4MzMgNy4wNzI5NFpNMjMuMDA1MiA3LjA3Mjk0QzIzLjAwNTIgOC4yMjA2NSAyMi4wNzQ4IDkuMTUxMDYgMjAuOTI3MSA5LjE1MTA2QzE5Ljc3OTQgOS4xNTEwNiAxOC44NDg5IDguMjIwNjUgMTguODQ4OSA3LjA3Mjk0QzE4Ljg0ODkgNS45MjUyMiAxOS43Nzk0IDQuOTk0ODEgMjAuOTI3MSA0Ljk5NDgxQzIyLjA3NDggNC45OTQ4MSAyMy4wMDUyIDUuOTI1MjIgMjMuMDA1MiA3LjA3Mjk0Wk05LjE1MTAzIDE0QzkuMTUxMDMgMTUuMTQ3NyA4LjIyMDYyIDE2LjA3ODEgNy4wNzI5MSAxNi4wNzgxQzUuOTI1MTkgMTYuMDc4MSA0Ljk5NDc4IDE1LjE0NzcgNC45OTQ3OCAxNEM0Ljk5NDc4IDEyLjg1MjMgNS45MjUxOSAxMS45MjE5IDcuMDcyOTEgMTEuOTIxOUM4LjIyMDYyIDExLjkyMTkgOS4xNTEwMyAxMi44NTIzIDkuMTUxMDMgMTRaTTIwLjkyNzEgMjMuMDA1MkMyMi4wNzQ4IDIzLjAwNTIgMjMuMDA1MiAyMi4wNzQ4IDIzLjAwNTIgMjAuOTI3MUMyMy4wMDUyIDE5Ljc3OTQgMjIuMDc0OCAxOC44NDkgMjAuOTI3MSAxOC44NDlDMTkuNzc5NCAxOC44NDkgMTguODQ4OSAxOS43Nzk0IDE4Ljg0ODkgMjAuOTI3MUMxOC44NDg5IDIyLjA3NDggMTkuNzc5NCAyMy4wMDUyIDIwLjkyNzEgMjMuMDA1MloiIGNsaXAtcnVsZT0iZXZlbm9kZCIgZmlsbC1ydWxlPSJldmVub2RkIi8+JiN4YTs8L3N2Zz4=;" parent="1" vertex="1">
          <mxGeometry x="1110" y="128" width="40" height="40" as="geometry" />
        </mxCell>
        <mxCell id="wd60IBFgmVZrknJt6zr2-13" value="Internet" style="shape=image;verticalLabelPosition=bottom;labelBackgroundColor=default;verticalAlign=top;aspect=fixed;imageAspect=0;image=data:image/svg+xml,PHN2ZyB4bWxucz0iaHR0cDovL3d3dy53My5vcmcvMjAwMC9zdmciIGZpbGw9Im5vbmUiIHZpZXdCb3g9IjAgMCAyOCAyOCIgaGVpZ2h0PSIyOCIgd2lkdGg9IjI4Ij4mI3hhOzxwYXRoIGZpbGw9IiMwMDc3RkYiIGQ9Ik0xNC4wMDI4IDJMMTQgMkM3LjM3MjU4IDIgMiA3LjM3MjU4IDIgMTRDMiAyMC42Mjc0IDcuMzcyNTggMjYgMTQgMjZDMjAuNjI3NCAyNiAyNiAyMC42Mjc0IDI2IDE0QzI2IDcuMzczNSAyMC42Mjg5IDIuMDAxNDkgMTQuMDAyOCAyWk0xNi4zMTM4IDIzLjczMUMxOS4wMjI2IDIzLjA4OTMgMjEuMzA1MiAyMS4zNDU5IDIyLjY2MjIgMTlIMTguMzc4N0MxNy45Nzc5IDIwLjUyODYgMTcuNDI5NiAyMS43OTE0IDE2Ljg3NTYgMjIuNzk1NkMxNi42ODY4IDIzLjEzNzcgMTYuNDk3NyAyMy40NDk0IDE2LjMxMzggMjMuNzMxWk0xOC43ODUzIDE3SDIzLjU0MjJDMjMuODM5NiAxNi4wNTMgMjQgMTUuMDQ1MiAyNCAxNEMyNCAxMi45NTQ4IDIzLjgzOTYgMTEuOTQ3IDIzLjU0MjIgMTFIMTguNzg1M0MxOC45MjE0IDExLjkyNDQgMTkgMTIuOTI0IDE5IDE0QzE5IDE1LjA3NiAxOC45MjE0IDE2LjA3NTYgMTguNzg1MyAxN1pNMTYuNzYxMiAxMUMxNi45MTExIDExLjkwOTcgMTcgMTIuOTA5IDE3IDE0QzE3IDE1LjA5MSAxNi45MTExIDE2LjA5MDMgMTYuNzYxMiAxN0gxMS4yMzg4QzExLjA4ODkgMTYuMDkwMyAxMSAxNS4wOTEgMTEgMTRDMTEgMTIuOTA5IDExLjA4ODkgMTEuOTA5NyAxMS4yMzg4IDExSDE2Ljc2MTJaTTE4LjM3ODcgOUgyMi42NjIyQzIxLjMwNTIgNi42NTQxNCAxOS4wMjI2IDQuOTEwNjkgMTYuMzEzOCA0LjI2OTAzQzE2LjQ5NzcgNC41NTA2NCAxNi42ODY4IDQuODYyMzEgMTYuODc1NiA1LjIwNDQyQzE3LjQyOTYgNi4yMDg2IDE3Ljk3NzkgNy40NzE0NSAxOC4zNzg3IDlaTTExLjY4NjIgNC4yNjkwM0M4Ljk3NzQyIDQuOTEwNjkgNi42OTQ4MyA2LjY1NDE0IDUuMzM3ODIgOUg5LjYyMTMxQzEwLjAyMjEgNy40NzE0NSAxMC41NzA0IDYuMjA4NiAxMS4xMjQ0IDUuMjA0NDJDMTEuMzEzMiA0Ljg2MjMxIDExLjUwMjMgNC41NTA2NCAxMS42ODYyIDQuMjY5MDNaTTExLjY5OCA5QzEyLjAzNTcgNy44Njg2MiAxMi40NTc4IDYuOTI3NzMgMTIuODc1NiA2LjE3MDU4QzEzLjI3OTEgNS40MzkxOCAxMy42ODAxIDQuODc2NjYgMTQgNC40NzgzNkMxNC4zMTk5IDQuODc2NjYgMTQuNzIwOSA1LjQzOTE4IDE1LjEyNDQgNi4xNzA1OEMxNS41NDIyIDYuOTI3NzMgMTUuOTY0MyA3Ljg2ODYyIDE2LjMwMiA5SDExLjY5OFpNOS4yMTQ2OCAxMUg0LjQ1NzhDNC4xNjAzNSAxMS45NDcgNCAxMi45NTQ4IDQgMTRDNCAxNS4wNDUyIDQuMTYwMzUgMTYuMDUzIDQuNDU3OCAxN0g5LjIxNDY4QzkuMDc4NTcgMTYuMDc1NiA5IDE1LjA3NiA5IDE0QzkgMTIuOTI0IDkuMDc4NTcgMTEuOTI0NCA5LjIxNDY4IDExWk05LjYyMTMxIDE5SDUuMzM3ODJDNi42OTQ4MyAyMS4zNDU5IDguOTc3NDIgMjMuMDg5MyAxMS42ODYyIDIzLjczMUMxMS41MDIzIDIzLjQ0OTQgMTEuMzEzMiAyMy4xMzc3IDExLjEyNDQgMjIuNzk1NkMxMC41NzA0IDIxLjc5MTQgMTAuMDIyMSAyMC41Mjg2IDkuNjIxMzEgMTlaTTExLjY5OCAxOUgxNi4zMDJDMTUuOTY0MyAyMC4xMzE0IDE1LjU0MjIgMjEuMDcyMyAxNS4xMjQ0IDIxLjgyOTRDMTQuNzIwOSAyMi41NjA4IDE0LjMxOTkgMjMuMTIzMyAxNCAyMy41MjE2QzEzLjY4MDEgMjMuMTIzMyAxMy4yNzkxIDIyLjU2MDggMTIuODc1NiAyMS44Mjk0QzEyLjQ1NzggMjEuMDcyMyAxMi4wMzU3IDIwLjEzMTQgMTEuNjk4IDE5WiIgY2xpcC1ydWxlPSJldmVub2RkIiBmaWxsLXJ1bGU9ImV2ZW5vZGQiLz4mI3hhOzwvc3ZnPg==;fontSize=16;fontFamily=VK Sans Display;fontSource=https%3A%2F%2Ffonts.googleapis.com%2Fcss%3Ffamily%3DArchitects%2BDaughter;" parent="1" vertex="1">
          <mxGeometry x="40" y="220" width="40" height="40" as="geometry" />
        </mxCell>
        <mxCell id="wd60IBFgmVZrknJt6zr2-40" value="" style="shape=image;verticalLabelPosition=bottom;labelBackgroundColor=default;verticalAlign=top;aspect=fixed;imageAspect=0;image=data:image/svg+xml,PHN2ZyB4bWxucz0iaHR0cDovL3d3dy53My5vcmcvMjAwMC9zdmciIGZpbGw9Im5vbmUiIHZpZXdCb3g9IjAgMCAyOCAyOCIgaGVpZ2h0PSIyOCIgd2lkdGg9IjI4Ij4mI3hhOzxwYXRoIGZpbGw9IndoaXRlIiBkPSJNMjUuMDgzMyA3LjA3Mjk0QzI1LjA4MzMgOS4zNjgzNyAyMy4yMjI1IDExLjIyOTIgMjAuOTI3MSAxMS4yMjkyQzIwLjM3MDkgMTEuMjI5MiAxOS44NDAyIDExLjExOTkgMTkuMzU1NCAxMC45MjE3QzE5LjA1MTcgMTAuNzk3NiAxOC42OTM0IDEwLjg0OTEgMTguNDc0NyAxMS4wOTM3TDE2LjI4MzEgMTMuNTQ0NkMxNi4wNDggMTMuODA3NSAxNi4wNDggMTQuMjA1MSAxNi4yODMxIDE0LjQ2OEwxOC40NjYgMTYuOTA5OUMxOC42ODUgMTcuMTU0OSAxOS4wNDQxIDE3LjIwNjIgMTkuMzQ4MiAxNy4wODEzQzE5LjgzNSAxNi44ODEyIDIwLjM2ODEgMTYuNzcwOSAyMC45MjcxIDE2Ljc3MDlDMjMuMjIyNSAxNi43NzA5IDI1LjA4MzMgMTguNjMxNyAyNS4wODMzIDIwLjkyNzFDMjUuMDgzMyAyMy4yMjI1IDIzLjIyMjUgMjUuMDgzNCAyMC45MjcxIDI1LjA4MzRDMTguNjMxNiAyNS4wODM0IDE2Ljc3MDggMjMuMjIyNSAxNi43NzA4IDIwLjkyNzFDMTYuNzcwOCAyMC4zMjc2IDE2Ljg5NzggMTkuNzU3NyAxNy4xMjYyIDE5LjI0MjlDMTcuMjQ5NSAxOC45NjUgMTcuMjIzNSAxOC42MzUgMTcuMDIwNiAxOC40MDg2TDE0LjIwNjUgMTUuMjY5NEMxNC4wNzUxIDE1LjEyMjggMTMuODg3NSAxNS4wMzkxIDEzLjY5MDcgMTUuMDM5MUgxMS42MzUyQzExLjMxOTEgMTUuMDM5MSAxMS4wNDg4IDE1LjI1NTggMTAuOTMwOSAxNS41NDlDMTAuMzE2NyAxNy4wNzczIDguODIwODMgMTguMTU2MyA3LjA3MjkxIDE4LjE1NjNDNC43Nzc0NyAxOC4xNTYzIDIuOTE2NjYgMTYuMjk1NSAyLjkxNjY2IDE0QzIuOTE2NjYgMTEuNzA0NiA0Ljc3NzQ3IDkuODQzNzcgNy4wNzI5MSA5Ljg0Mzc3QzguODIwODMgOS44NDM3NyAxMC4zMTY3IDEwLjkyMjggMTAuOTMwOSAxMi40NTFDMTEuMDQ4OCAxMi43NDQzIDExLjMxOTEgMTIuOTYxIDExLjYzNTIgMTIuOTYxSDEzLjY5MTRDMTMuODg3OCAxMi45NjEgMTQuMDc1IDEyLjg3NzYgMTQuMjA2NCAxMi43MzE1TDE3LjAyMzIgOS42MDAxOUMxNy4yMjcyIDkuMzczNDIgMTcuMjUzMyA5LjA0MjEyIDE3LjEyOTEgOC43NjM1NEMxNi44OTg4IDguMjQ3MDUgMTYuNzcwOCA3LjY3NDk0IDE2Ljc3MDggNy4wNzI5NEMxNi43NzA4IDQuNzc3NSAxOC42MzE2IDIuOTE2NjkgMjAuOTI3MSAyLjkxNjY5QzIzLjIyMjUgMi45MTY2OSAyNS4wODMzIDQuNzc3NSAyNS4wODMzIDcuMDcyOTRaTTIzLjAwNTIgNy4wNzI5NEMyMy4wMDUyIDguMjIwNjUgMjIuMDc0OCA5LjE1MTA2IDIwLjkyNzEgOS4xNTEwNkMxOS43Nzk0IDkuMTUxMDYgMTguODQ4OSA4LjIyMDY1IDE4Ljg0ODkgNy4wNzI5NEMxOC44NDg5IDUuOTI1MjIgMTkuNzc5NCA0Ljk5NDgxIDIwLjkyNzEgNC45OTQ4MUMyMi4wNzQ4IDQuOTk0ODEgMjMuMDA1MiA1LjkyNTIyIDIzLjAwNTIgNy4wNzI5NFpNOS4xNTEwMyAxNEM5LjE1MTAzIDE1LjE0NzcgOC4yMjA2MiAxNi4wNzgxIDcuMDcyOTEgMTYuMDc4MUM1LjkyNTE5IDE2LjA3ODEgNC45OTQ3OCAxNS4xNDc3IDQuOTk0NzggMTRDNC45OTQ3OCAxMi44NTIzIDUuOTI1MTkgMTEuOTIxOSA3LjA3MjkxIDExLjkyMTlDOC4yMjA2MiAxMS45MjE5IDkuMTUxMDMgMTIuODUyMyA5LjE1MTAzIDE0Wk0yMC45MjcxIDIzLjAwNTJDMjIuMDc0OCAyMy4wMDUyIDIzLjAwNTIgMjIuMDc0OCAyMy4wMDUyIDIwLjkyNzFDMjMuMDA1MiAxOS43Nzk0IDIyLjA3NDggMTguODQ5IDIwLjkyNzEgMTguODQ5QzE5Ljc3OTQgMTguODQ5IDE4Ljg0ODkgMTkuNzc5NCAxOC44NDg5IDIwLjkyNzFDMTguODQ4OSAyMi4wNzQ4IDE5Ljc3OTQgMjMuMDA1MiAyMC45MjcxIDIzLjAwNTJaIiBjbGlwLXJ1bGU9ImV2ZW5vZGQiIGZpbGwtcnVsZT0iZXZlbm9kZCIvPiYjeGE7PC9zdmc+;" parent="1" vertex="1">
          <mxGeometry x="825" y="270" width="28" height="28" as="geometry" />
        </mxCell>
        <mxCell id="4yT3udSQy6Lw45BaMNbX-1" value="BGP router" style="shape=image;verticalLabelPosition=bottom;labelBackgroundColor=default;verticalAlign=top;aspect=fixed;imageAspect=0;image=data:image/svg+xml,PHN2ZyB4bWxucz0iaHR0cDovL3d3dy53My5vcmcvMjAwMC9zdmciIGZpbGw9Im5vbmUiIHZpZXdCb3g9IjAgMCAzMiAzMiIgaGVpZ2h0PSIzMiIgd2lkdGg9IjMyIj4mI3hhOzxwYXRoIGZpbGw9IiMyMTIxMjEiIGQ9Ik0zLjMxNDI4IDE2QzMuMzE0MjggOC45OTM4NyA4Ljk5Mzg3IDMuMzE0MjggMTYgMy4zMTQyOEMyMy4wMDYxIDMuMzE0MjggMjguNjg1NyA4Ljk5Mzg3IDI4LjY4NTcgMTZDMjguNjg1NyAyMy4wMDYxIDIzLjAwNjEgMjguNjg1NyAxNiAyOC42ODU3QzguOTkzODcgMjguNjg1NyAzLjMxNDI4IDIzLjAwNjEgMy4zMTQyOCAxNlpNMTYgMS4yNTcxNEM3Ljg1Nzc0IDEuMjU3MTQgMS4yNTcxNCA3Ljg1Nzc0IDEuMjU3MTQgMTZDMS4yNTcxNCAyNC4xNDIzIDcuODU3NzQgMzAuNzQyOSAxNiAzMC43NDI5QzI0LjE0MjMgMzAuNzQyOSAzMC43NDI5IDI0LjE0MjMgMzAuNzQyOSAxNkMzMC43NDI5IDcuODU3NzQgMjQuMTQyMyAxLjI1NzE0IDE2IDEuMjU3MTRaTTE5LjUxNzMgNy4zMjYyNUMxOS44NzQzIDcuNjYxMSAxOS44ODgxIDguMjE3NTYgMTkuNTQ4MSA4LjU2OTE1QzE5LjIwOCA4LjkyMDczIDE4LjY0MjggOC45MzQzMSAxOC4yODU3IDguNTk5NDZMMTYuODkyOSA3LjUwMTgzVjE4LjkzMDRMMTYuODkyOCAxOC45MzlWMjQuNDk4MkwxOC4yODU3IDIzLjQwMDVDMTguNjQyOCAyMy4wNjU3IDE5LjIwOCAyMy4wNzkzIDE5LjU0OCAyMy40MzA5QzE5Ljg4ODEgMjMuNzgyNCAxOS44NzQzIDI0LjMzODkgMTkuNTE3MyAyNC42NzM3TDE2LjYxNTggMjcuMTg2MUMxNi4yNzA5IDI3LjUwOTQgMTUuNzI5MSAyNy41MDk0IDE1LjM4NDIgMjcuMTg2MUwxMi40ODI4IDI0LjY3MzdDMTIuMTI1NyAyNC4zMzg5IDEyLjExMTkgMjMuNzgyNCAxMi40NTIgMjMuNDMwOUMxMi43OTIgMjMuMDc5MyAxMy4zNTcyIDIzLjA2NTcgMTMuNzE0MyAyMy40MDA1TDE1LjEwNzEgMjQuNDk4MkwxNS4xMDcxIDEzLjA2OTZMMTUuMTA3MiAxMy4wNjA5VjcuNTAxODNMMTMuNzE0MyA4LjU5OTQ2QzEzLjM1NzIgOC45MzQzMSAxMi43OTIgOC45MjA3MyAxMi40NTIgOC41NjkxNUMxMi4xMTE5IDguMjE3NTYgMTIuMTI1NyA3LjY2MTEgMTIuNDgyOCA3LjMyNjI1TDE1LjM4NDMgNC44MTM5NUMxNS43MjkxIDQuNDkwNTkgMTYuMjcxIDQuNDkwNTkgMTYuNjE1OCA0LjgxMzk1TDE5LjUxNzMgNy4zMjYyNVpNMTAuMDk3NSAxOS45MTM4QzEwLjQ0OTEgMjAuMjUzOSAxMS4wMDU2IDIwLjI0MDEgMTEuMzQwNCAxOS44ODNMMTMuODUyNyAxNi45ODE2QzE0LjE3NjEgMTYuNjM2NyAxNC4xNzYxIDE2LjA5NDkgMTMuODUyNyAxNS43NUwxMS4zNDA0IDEyLjg0ODVDMTEuMDA1NiAxMi40OTE0IDEwLjQ0OTEgMTIuNDc3NyAxMC4wOTc1IDEyLjgxNzdDOS43NDU5NCAxMy4xNTc4IDkuNzMyMzYgMTMuNzIzIDEwLjA2NzIgMTQuMDgwMUwxMS4xNjQ4IDE1LjQ3MjlMNS40NTA1NCAxNS40NzI5QzQuOTY1MDIgMTUuNDcyOSA0LjU3MTQyIDE1Ljg3MjcgNC41NzE0MiAxNi4zNjU4QzQuNTcxNDIgMTYuODU4OSA0Ljk2NTAxIDE3LjI1ODcgNS40NTA1NCAxNy4yNTg3TDExLjE2NDggMTcuMjU4N0wxMC4wNjcyIDE4LjY1MTVDOS43MzIzNiAxOS4wMDg2IDkuNzQ1OTQgMTkuNTczNyAxMC4wOTc1IDE5LjkxMzhaTTIwLjY2MzQgMTIuODQ4NUMyMC45OTgyIDEyLjQ5MTQgMjEuNTU0NyAxMi40Nzc3IDIxLjkwNjMgMTIuODE3N0MyMi4yNTc5IDEzLjE1NzggMjIuMjcxNSAxMy43MjMgMjEuOTM2NiAxNC4wOEwyMC44MzkgMTUuNDcyOUgyNi41NTMzQzI3LjAzODggMTUuNDcyOSAyNy40MzI0IDE1Ljg3MjYgMjcuNDMyNCAxNi4zNjU4QzI3LjQzMjQgMTYuODU4OSAyNy4wMzg4IDE3LjI1ODYgMjYuNTUzMyAxNy4yNTg2SDIwLjgzOUwyMS45MzY2IDE4LjY1MTVDMjIuMjcxNSAxOS4wMDg2IDIyLjI1NzkgMTkuNTczNyAyMS45MDYzIDE5LjkxMzhDMjEuNTU0NyAyMC4yNTM5IDIwLjk5ODIgMjAuMjQwMSAyMC42NjM0IDE5Ljg4M0wxOC4xNTExIDE2Ljk4MTVDMTcuODI3NyAxNi42MzY3IDE3LjgyNzcgMTYuMDk0OCAxOC4xNTExIDE1Ljc1TDIwLjY2MzQgMTIuODQ4NVoiIGNsaXAtcnVsZT0iZXZlbm9kZCIgZmlsbC1ydWxlPSJldmVub2RkIi8+JiN4YTs8L3N2Zz4=;fontSize=16;fontFamily=VK Sans Display;fontSource=https%3A%2F%2Ffonts.googleapis.com%2Fcss%3Ffamily%3DArchitects%2BDaughter;" parent="1" vertex="1">
          <mxGeometry x="920" y="339" width="40" height="40" as="geometry" />
        </mxCell>
        <mxCell id="4yT3udSQy6Lw45BaMNbX-2" value="Platform router" style="shape=image;verticalLabelPosition=bottom;labelBackgroundColor=default;verticalAlign=top;aspect=fixed;imageAspect=0;image=data:image/svg+xml,PHN2ZyB4bWxucz0iaHR0cDovL3d3dy53My5vcmcvMjAwMC9zdmciIGZpbGw9Im5vbmUiIHZpZXdCb3g9IjAgMCAzMiAzMiIgaGVpZ2h0PSIzMiIgd2lkdGg9IjMyIj4mI3hhOzxwYXRoIGZpbGw9IiMwMDc3RkYiIGQ9Ik0zLjMxNDI4IDE2QzMuMzE0MjggOC45OTM4NyA4Ljk5Mzg3IDMuMzE0MjggMTYgMy4zMTQyOEMyMy4wMDYxIDMuMzE0MjggMjguNjg1NyA4Ljk5Mzg3IDI4LjY4NTcgMTZDMjguNjg1NyAyMy4wMDYxIDIzLjAwNjEgMjguNjg1NyAxNiAyOC42ODU3QzguOTkzODcgMjguNjg1NyAzLjMxNDI4IDIzLjAwNjEgMy4zMTQyOCAxNlpNMTYgMS4yNTcxNEM3Ljg1Nzc0IDEuMjU3MTQgMS4yNTcxNCA3Ljg1Nzc0IDEuMjU3MTQgMTZDMS4yNTcxNCAyNC4xNDIzIDcuODU3NzQgMzAuNzQyOSAxNiAzMC43NDI5QzI0LjE0MjMgMzAuNzQyOSAzMC43NDI5IDI0LjE0MjMgMzAuNzQyOSAxNkMzMC43NDI5IDcuODU3NzQgMjQuMTQyMyAxLjI1NzE0IDE2IDEuMjU3MTRaTTE5LjUxNzMgNy4zMjYyNUMxOS44NzQzIDcuNjYxMSAxOS44ODgxIDguMjE3NTYgMTkuNTQ4MSA4LjU2OTE1QzE5LjIwOCA4LjkyMDczIDE4LjY0MjggOC45MzQzMSAxOC4yODU3IDguNTk5NDZMMTYuODkyOSA3LjUwMTgzVjE4LjkzMDRMMTYuODkyOCAxOC45MzlWMjQuNDk4MkwxOC4yODU3IDIzLjQwMDVDMTguNjQyOCAyMy4wNjU3IDE5LjIwOCAyMy4wNzkzIDE5LjU0OCAyMy40MzA5QzE5Ljg4ODEgMjMuNzgyNCAxOS44NzQzIDI0LjMzODkgMTkuNTE3MyAyNC42NzM3TDE2LjYxNTggMjcuMTg2MUMxNi4yNzA5IDI3LjUwOTQgMTUuNzI5MSAyNy41MDk0IDE1LjM4NDIgMjcuMTg2MUwxMi40ODI4IDI0LjY3MzdDMTIuMTI1NyAyNC4zMzg5IDEyLjExMTkgMjMuNzgyNCAxMi40NTIgMjMuNDMwOUMxMi43OTIgMjMuMDc5MyAxMy4zNTcyIDIzLjA2NTcgMTMuNzE0MyAyMy40MDA1TDE1LjEwNzEgMjQuNDk4MkwxNS4xMDcxIDEzLjA2OTZMMTUuMTA3MiAxMy4wNjA5VjcuNTAxODNMMTMuNzE0MyA4LjU5OTQ2QzEzLjM1NzIgOC45MzQzMSAxMi43OTIgOC45MjA3MyAxMi40NTIgOC41NjkxNUMxMi4xMTE5IDguMjE3NTYgMTIuMTI1NyA3LjY2MTEgMTIuNDgyOCA3LjMyNjI1TDE1LjM4NDMgNC44MTM5NUMxNS43MjkxIDQuNDkwNTkgMTYuMjcxIDQuNDkwNTkgMTYuNjE1OCA0LjgxMzk1TDE5LjUxNzMgNy4zMjYyNVpNMTAuMDk3NSAxOS45MTM4QzEwLjQ0OTEgMjAuMjUzOSAxMS4wMDU2IDIwLjI0MDEgMTEuMzQwNCAxOS44ODNMMTMuODUyNyAxNi45ODE2QzE0LjE3NjEgMTYuNjM2NyAxNC4xNzYxIDE2LjA5NDkgMTMuODUyNyAxNS43NUwxMS4zNDA0IDEyLjg0ODVDMTEuMDA1NiAxMi40OTE0IDEwLjQ0OTEgMTIuNDc3NyAxMC4wOTc1IDEyLjgxNzdDOS43NDU5NCAxMy4xNTc4IDkuNzMyMzYgMTMuNzIzIDEwLjA2NzIgMTQuMDgwMUwxMS4xNjQ4IDE1LjQ3MjlMNS40NTA1NCAxNS40NzI5QzQuOTY1MDIgMTUuNDcyOSA0LjU3MTQyIDE1Ljg3MjcgNC41NzE0MiAxNi4zNjU4QzQuNTcxNDIgMTYuODU4OSA0Ljk2NTAxIDE3LjI1ODcgNS40NTA1NCAxNy4yNTg3TDExLjE2NDggMTcuMjU4N0wxMC4wNjcyIDE4LjY1MTVDOS43MzIzNiAxOS4wMDg2IDkuNzQ1OTQgMTkuNTczNyAxMC4wOTc1IDE5LjkxMzhaTTIwLjY2MzQgMTIuODQ4NUMyMC45OTgyIDEyLjQ5MTQgMjEuNTU0NyAxMi40Nzc3IDIxLjkwNjMgMTIuODE3N0MyMi4yNTc5IDEzLjE1NzggMjIuMjcxNSAxMy43MjMgMjEuOTM2NiAxNC4wOEwyMC44MzkgMTUuNDcyOUgyNi41NTMzQzI3LjAzODggMTUuNDcyOSAyNy40MzI0IDE1Ljg3MjYgMjcuNDMyNCAxNi4zNjU4QzI3LjQzMjQgMTYuODU4OSAyNy4wMzg4IDE3LjI1ODYgMjYuNTUzMyAxNy4yNTg2SDIwLjgzOUwyMS45MzY2IDE4LjY1MTVDMjIuMjcxNSAxOS4wMDg2IDIyLjI1NzkgMTkuNTczNyAyMS45MDYzIDE5LjkxMzhDMjEuNTU0NyAyMC4yNTM5IDIwLjk5ODIgMjAuMjQwMSAyMC42NjM0IDE5Ljg4M0wxOC4xNTExIDE2Ljk4MTVDMTcuODI3NyAxNi42MzY3IDE3LjgyNzcgMTYuMDk0OCAxOC4xNTExIDE1Ljc1TDIwLjY2MzQgMTIuODQ4NVoiIGNsaXAtcnVsZT0iZXZlbm9kZCIgZmlsbC1ydWxlPSJldmVub2RkIi8+JiN4YTs8L3N2Zz4=;fontSize=16;fontFamily=VK Sans Display;fontSource=https%3A%2F%2Ffonts.googleapis.com%2Fcss%3Ffamily%3DArchitects%2BDaughter;" parent="1" vertex="1">
          <mxGeometry x="140" y="221" width="40" height="40" as="geometry" />
        </mxCell>
      </root>
    </mxGraphModel>
  </diagram>
  <diagram name="after" id="jVFuITnZ0JH_Gd-EPz0O">
    <mxGraphModel dx="1460" dy="846" grid="1" gridSize="10" guides="1" tooltips="1" connect="1" arrows="1" fold="1" page="1" pageScale="1" pageWidth="827" pageHeight="1169" math="0" shadow="0">
      <root>
        <mxCell id="g7Od-292g7PqaHPzFKWb-0" />
        <mxCell id="g7Od-292g7PqaHPzFKWb-1" parent="g7Od-292g7PqaHPzFKWb-0" />
        <mxCell id="g7Od-292g7PqaHPzFKWb-2" value="" style="rounded=0;whiteSpace=wrap;html=1;hachureGap=4;fontFamily=Architects Daughter;fontSource=https%3A%2F%2Ffonts.googleapis.com%2Fcss%3Ffamily%3DArchitects%2BDaughter;fontSize=20;fillColor=none;movable=1;resizable=1;rotatable=1;deletable=1;editable=1;locked=0;connectable=1;strokeColor=none;" parent="g7Od-292g7PqaHPzFKWb-1" vertex="1">
          <mxGeometry x="10" y="100" width="1170" height="360" as="geometry" />
        </mxCell>
        <mxCell id="g7Od-292g7PqaHPzFKWb-3" value="&lt;p style=&quot;line-height: 200%; font-size: 16px;&quot;&gt;&lt;font color=&quot;#212121&quot; style=&quot;font-size: 16px;&quot;&gt;&lt;b style=&quot;font-size: 16px;&quot;&gt;vkcloud-net&lt;br style=&quot;font-size: 16px;&quot;&gt;&lt;/b&gt;172.17.0.0/24&lt;br style=&quot;font-size: 16px;&quot;&gt;&lt;/font&gt;&lt;/p&gt;" style="rounded=1;whiteSpace=wrap;html=1;fontFamily=VK Sans Display;strokeColor=#6c8ebf;arcsize=12;fillColor=none;spacing=0;spacingTop=12;spacingBottom=12;arcSize=12;absoluteArcSize=1;verticalAlign=top;align=center;dashed=1;strokeWidth=1;fontSize=16;" parent="g7Od-292g7PqaHPzFKWb-1" vertex="1">
          <mxGeometry x="110" y="120" width="280" height="320" as="geometry" />
        </mxCell>
        <mxCell id="g7Od-292g7PqaHPzFKWb-4" value="" style="shape=image;verticalLabelPosition=bottom;labelBackgroundColor=default;verticalAlign=top;aspect=fixed;imageAspect=0;image=data:image/svg+xml,PHN2ZyB4bWxucz0iaHR0cDovL3d3dy53My5vcmcvMjAwMC9zdmciIGZpbGw9Im5vbmUiIHZpZXdCb3g9IjAgMCAyOCAyOCIgaGVpZ2h0PSIyOCIgd2lkdGg9IjI4Ij4mI3hhOzxwYXRoIGZpbGw9IiMwMDc3RkYiIGQ9Ik0yNS4wODMzIDcuMDcyOTRDMjUuMDgzMyA5LjM2ODM3IDIzLjIyMjUgMTEuMjI5MiAyMC45MjcxIDExLjIyOTJDMjAuMzcwOSAxMS4yMjkyIDE5Ljg0MDIgMTEuMTE5OSAxOS4zNTU0IDEwLjkyMTdDMTkuMDUxNyAxMC43OTc2IDE4LjY5MzQgMTAuODQ5MSAxOC40NzQ3IDExLjA5MzdMMTYuMjgzMSAxMy41NDQ2QzE2LjA0OCAxMy44MDc1IDE2LjA0OCAxNC4yMDUxIDE2LjI4MzEgMTQuNDY4TDE4LjQ2NiAxNi45MDk5QzE4LjY4NSAxNy4xNTQ5IDE5LjA0NDEgMTcuMjA2MiAxOS4zNDgyIDE3LjA4MTNDMTkuODM1IDE2Ljg4MTIgMjAuMzY4MSAxNi43NzA5IDIwLjkyNzEgMTYuNzcwOUMyMy4yMjI1IDE2Ljc3MDkgMjUuMDgzMyAxOC42MzE3IDI1LjA4MzMgMjAuOTI3MUMyNS4wODMzIDIzLjIyMjUgMjMuMjIyNSAyNS4wODM0IDIwLjkyNzEgMjUuMDgzNEMxOC42MzE2IDI1LjA4MzQgMTYuNzcwOCAyMy4yMjI1IDE2Ljc3MDggMjAuOTI3MUMxNi43NzA4IDIwLjMyNzYgMTYuODk3OCAxOS43NTc3IDE3LjEyNjIgMTkuMjQyOUMxNy4yNDk1IDE4Ljk2NSAxNy4yMjM1IDE4LjYzNSAxNy4wMjA2IDE4LjQwODZMMTQuMjA2NSAxNS4yNjk0QzE0LjA3NTEgMTUuMTIyOCAxMy44ODc1IDE1LjAzOTEgMTMuNjkwNyAxNS4wMzkxSDExLjYzNTJDMTEuMzE5MSAxNS4wMzkxIDExLjA0ODggMTUuMjU1OCAxMC45MzA5IDE1LjU0OUMxMC4zMTY3IDE3LjA3NzMgOC44MjA4MyAxOC4xNTYzIDcuMDcyOTEgMTguMTU2M0M0Ljc3NzQ3IDE4LjE1NjMgMi45MTY2NiAxNi4yOTU1IDIuOTE2NjYgMTRDMi45MTY2NiAxMS43MDQ2IDQuNzc3NDcgOS44NDM3NyA3LjA3MjkxIDkuODQzNzdDOC44MjA4MyA5Ljg0Mzc3IDEwLjMxNjcgMTAuOTIyOCAxMC45MzA5IDEyLjQ1MUMxMS4wNDg4IDEyLjc0NDMgMTEuMzE5MSAxMi45NjEgMTEuNjM1MiAxMi45NjFIMTMuNjkxNEMxMy44ODc4IDEyLjk2MSAxNC4wNzUgMTIuODc3NiAxNC4yMDY0IDEyLjczMTVMMTcuMDIzMiA5LjYwMDE4QzE3LjIyNzIgOS4zNzM0MiAxNy4yNTMzIDkuMDQyMTIgMTcuMTI5MSA4Ljc2MzU0QzE2Ljg5ODggOC4yNDcwNSAxNi43NzA4IDcuNjc0OTQgMTYuNzcwOCA3LjA3Mjk0QzE2Ljc3MDggNC43Nzc1IDE4LjYzMTYgMi45MTY2OSAyMC45MjcxIDIuOTE2NjlDMjMuMjIyNSAyLjkxNjY5IDI1LjA4MzMgNC43Nzc1IDI1LjA4MzMgNy4wNzI5NFpNMjMuMDA1MiA3LjA3Mjk0QzIzLjAwNTIgOC4yMjA2NSAyMi4wNzQ4IDkuMTUxMDYgMjAuOTI3MSA5LjE1MTA2QzE5Ljc3OTQgOS4xNTEwNiAxOC44NDg5IDguMjIwNjUgMTguODQ4OSA3LjA3Mjk0QzE4Ljg0ODkgNS45MjUyMiAxOS43Nzk0IDQuOTk0ODEgMjAuOTI3MSA0Ljk5NDgxQzIyLjA3NDggNC45OTQ4MSAyMy4wMDUyIDUuOTI1MjIgMjMuMDA1MiA3LjA3Mjk0Wk05LjE1MTAzIDE0QzkuMTUxMDMgMTUuMTQ3NyA4LjIyMDYyIDE2LjA3ODEgNy4wNzI5MSAxNi4wNzgxQzUuOTI1MTkgMTYuMDc4MSA0Ljk5NDc4IDE1LjE0NzcgNC45OTQ3OCAxNEM0Ljk5NDc4IDEyLjg1MjMgNS45MjUxOSAxMS45MjE5IDcuMDcyOTEgMTEuOTIxOUM4LjIyMDYyIDExLjkyMTkgOS4xNTEwMyAxMi44NTIzIDkuMTUxMDMgMTRaTTIwLjkyNzEgMjMuMDA1MkMyMi4wNzQ4IDIzLjAwNTIgMjMuMDA1MiAyMi4wNzQ4IDIzLjAwNTIgMjAuOTI3MUMyMy4wMDUyIDE5Ljc3OTQgMjIuMDc0OCAxOC44NDkgMjAuOTI3MSAxOC44NDlDMTkuNzc5NCAxOC44NDkgMTguODQ4OSAxOS43Nzk0IDE4Ljg0ODkgMjAuOTI3MUMxOC44NDg5IDIyLjA3NDggMTkuNzc5NCAyMy4wMDUyIDIwLjkyNzEgMjMuMDA1MloiIGNsaXAtcnVsZT0iZXZlbm9kZCIgZmlsbC1ydWxlPSJldmVub2RkIi8+JiN4YTs8L3N2Zz4=;" parent="g7Od-292g7PqaHPzFKWb-1" vertex="1">
          <mxGeometry x="330" y="128" width="40" height="40" as="geometry" />
        </mxCell>
        <mxCell id="g7Od-292g7PqaHPzFKWb-5" style="shape=connector;rounded=1;orthogonalLoop=1;jettySize=auto;html=1;entryX=1.003;entryY=0.127;entryDx=0;entryDy=0;entryPerimeter=0;labelBackgroundColor=#FFFFFF;strokeColor=#7C8A9A;strokeWidth=2;fontFamily=VK Sans Display;fontSize=10;fontColor=#212121;startArrow=oval;startFill=1;endArrow=oval;endFill=1;dashed=1;" parent="g7Od-292g7PqaHPzFKWb-1" target="g7Od-292g7PqaHPzFKWb-3" edge="1">
          <mxGeometry relative="1" as="geometry">
            <mxPoint x="880" y="160" as="sourcePoint" />
          </mxGeometry>
        </mxCell>
        <mxCell id="g7Od-292g7PqaHPzFKWb-6" value="eBGP Peering" style="edgeLabel;html=1;align=center;verticalAlign=middle;resizable=0;points=[];fontSize=16;fontFamily=VK Sans Display;fontColor=#212121;textOpacity=70;" parent="g7Od-292g7PqaHPzFKWb-5" vertex="1" connectable="0">
          <mxGeometry x="-0.0679" relative="1" as="geometry">
            <mxPoint x="-17" y="-2" as="offset" />
          </mxGeometry>
        </mxCell>
        <mxCell id="g7Od-292g7PqaHPzFKWb-7" value="&lt;p style=&quot;line-height: 200%; font-size: 16px;&quot;&gt;&lt;font color=&quot;#212121&quot; style=&quot;font-size: 16px;&quot;&gt;&lt;b style=&quot;font-size: 16px;&quot;&gt;customer-net&lt;br style=&quot;font-size: 16px;&quot;&gt;&lt;/b&gt;10.0.0.0/24&lt;br style=&quot;font-size: 16px;&quot;&gt;&lt;/font&gt;&lt;/p&gt;" style="rounded=1;whiteSpace=wrap;html=1;fontFamily=VK Sans Display;strokeColor=#666666;arcsize=12;fillColor=none;spacing=0;spacingTop=12;spacingBottom=12;arcSize=12;absoluteArcSize=1;verticalAlign=top;fontColor=#333333;dashed=1;fontSize=16;" parent="g7Od-292g7PqaHPzFKWb-1" vertex="1">
          <mxGeometry x="880" y="120" width="280" height="320" as="geometry" />
        </mxCell>
        <mxCell id="g7Od-292g7PqaHPzFKWb-8" value="&lt;p style=&quot;line-height: 200%; font-size: 16px;&quot;&gt;&lt;font style=&quot;font-size: 16px;&quot; color=&quot;#212121&quot;&gt;&lt;b&gt;x-net&lt;br&gt;&lt;/b&gt;172.20.2.0/24&lt;br&gt;&lt;/font&gt;&lt;/p&gt;" style="rounded=1;whiteSpace=wrap;html=1;fontFamily=VK Sans Display;strokeColor=none;arcsize=12;fillColor=#87D6E8;spacing=0;spacingTop=12;spacingBottom=12;arcSize=12;absoluteArcSize=1;dashed=1;" parent="g7Od-292g7PqaHPzFKWb-1" vertex="1">
          <mxGeometry x="410" y="260" width="450" height="80" as="geometry" />
        </mxCell>
        <mxCell id="g7Od-292g7PqaHPzFKWb-9" value="&lt;font style=&quot;font-size: 15px;&quot;&gt;AS 65412&lt;/font&gt;" style="text;html=1;strokeColor=none;fillColor=none;align=center;verticalAlign=middle;whiteSpace=wrap;rounded=0;fontSize=10;fontFamily=VK Sans Display;fontColor=#212121;" parent="g7Od-292g7PqaHPzFKWb-1" vertex="1">
          <mxGeometry x="396" y="160" width="70" height="30" as="geometry" />
        </mxCell>
        <mxCell id="g7Od-292g7PqaHPzFKWb-10" value="&lt;font style=&quot;font-size: 16px;&quot;&gt;AS 65512&lt;/font&gt;" style="text;html=1;strokeColor=none;fillColor=none;align=center;verticalAlign=middle;whiteSpace=wrap;rounded=0;fontSize=10;fontFamily=VK Sans Display;fontColor=#212121;" parent="g7Od-292g7PqaHPzFKWb-1" vertex="1">
          <mxGeometry x="804" y="160" width="70" height="30" as="geometry" />
        </mxCell>
        <mxCell id="g7Od-292g7PqaHPzFKWb-11" style="edgeStyle=orthogonalEdgeStyle;shape=connector;rounded=0;hachureGap=4;orthogonalLoop=1;jettySize=auto;html=1;labelBackgroundColor=default;strokeColor=#7C8A9A;strokeWidth=2;fontFamily=Architects Daughter;fontSource=https%3A%2F%2Ffonts.googleapis.com%2Fcss%3Ffamily%3DArchitects%2BDaughter;fontSize=16;fontColor=default;startArrow=oval;startFill=1;endArrow=oval;endFill=1;" parent="g7Od-292g7PqaHPzFKWb-1" source="g7Od-292g7PqaHPzFKWb-12" edge="1">
          <mxGeometry relative="1" as="geometry">
            <mxPoint x="160" y="262" as="targetPoint" />
          </mxGeometry>
        </mxCell>
        <mxCell id="g7Od-292g7PqaHPzFKWb-12" value="172.17.0.8" style="shape=image;verticalLabelPosition=bottom;labelBackgroundColor=default;verticalAlign=top;aspect=fixed;imageAspect=0;image=data:image/svg+xml,PHN2ZyB4bWxucz0iaHR0cDovL3d3dy53My5vcmcvMjAwMC9zdmciIGZpbGw9Im5vbmUiIHZpZXdCb3g9IjAgMCAyOCAyOCIgaGVpZ2h0PSIyOCIgd2lkdGg9IjI4Ij4mI3hhOzxwYXRoIGZpbGw9IiMwMDc3RkYiIGQ9Ik0yLjkxNjY2IDE0QzIuOTE2NjYgOC43NzUyNiAyLjkxNjY2IDYuMTYyODkgNC41Mzk3NyA0LjUzOTc3QzYuMTYyODkgMi45MTY2NiA4Ljc3NTI2IDIuOTE2NjYgMTQgMi45MTY2NkMxOS4yMjQ3IDIuOTE2NjYgMjEuODM3MSAyLjkxNjY2IDIzLjQ2MDIgNC41Mzk3N0MyNS4wODMzIDYuMTYyODkgMjUuMDgzMyA4Ljc3NTI2IDI1LjA4MzMgMTRDMjUuMDgzMyAxNS4xNjI2IDI1LjA2MDIgMTYuNDc3NiAyNS4wMzA4IDE3LjUzOThDMjUuMDE1OSAxOC4wNzU5IDI0LjU3NTYgMTguNSAyNC4wMzkzIDE4LjVDMjMuNDczMyAxOC41IDIzLjAxNDkgMTguMDI5MiAyMy4wMTIxIDE3LjQ2MzFDMjMuMDExMSAxNy4yNTUxIDIzLjAwOTIgMTcuMDM4NiAyMy4wMDczIDE2LjgyM0MyMy4wMDQgMTYuNDM5MiAyMy4wMDA3IDE2LjA1ODMgMjMuMDAyMyAxNS43MzM0QzIzLjAwNDIgMTUuMzUwMyAyMi42OTM2IDE1LjAzOTEgMjIuMzEwNiAxNS4wMzkxSDUuNjg5MzlDNS4zMDYzNCAxNS4wMzkxIDQuOTk1NzcgMTUuMzUwMyA0Ljk5NzY4IDE1LjczMzRDNS4wMDY0MiAxNy40ODQzIDUuMDQxMjIgMTguNzc4IDUuMTc5MTQgMTkuODAzOEM1LjM1MTA1IDIxLjA4MjQgNS42NDgxNCAyMS42Mjk3IDYuMDA5MjMgMjEuOTkwN0M2LjM3MDMxIDIyLjM1MTggNi45MTc1NSAyMi42NDg5IDguMTk2MTggMjIuODIwOEM4LjQ0NzY1IDIyLjg1NDYgOC43MTUyMSAyMi44ODIzIDkuMDAxNjUgMjIuOTA0OEM5LjU1ODQxIDIyLjk0ODYgMTAgMjMuNDAzMSAxMCAyMy45NjE2QzEwIDI0LjU1MTEgOS41MDk0IDI1LjAyNjQgOC45MjE1IDI0Ljk4MjZDNi44NjE1MyAyNC44Mjg4IDUuNTIwMTggMjQuNDQwNiA0LjUzOTc3IDIzLjQ2MDJDMi45MTY2NiAyMS44MzcxIDIuOTE2NjYgMTkuMjI0NyAyLjkxNjY2IDE0Wk0yMy4wMDIzIDEyLjI2NjZDMjMuMDA0MiAxMi42NDk2IDIyLjY5MzYgMTIuOTYwOSAyMi4zMTA2IDEyLjk2MDlINS42ODkzOUM1LjMwNjM0IDEyLjk2MDkgNC45OTU3NyAxMi42NDk2IDQuOTk3NjggMTIuMjY2NkM1LjAwNjQyIDEwLjUxNTYgNS4wNDEyMiA5LjIyMjAxIDUuMTc5MTQgOC4xOTYxOEM1LjM1MTA1IDYuOTE3NTUgNS42NDgxNCA2LjM3MDMxIDYuMDA5MjMgNi4wMDkyM0M2LjM3MDMxIDUuNjQ4MTQgNi45MTc1NSA1LjM1MTA1IDguMTk2MTggNS4xNzkxNEM5LjUzNDU5IDQuOTk5MiAxMS4zMjg5IDQuOTk0NzggMTQgNC45OTQ3OEMxNi42NzExIDQuOTk0NzggMTguNDY1NCA0Ljk5OTIgMTkuODAzOCA1LjE3OTE0QzIxLjA4MjQgNS4zNTEwNSAyMS42Mjk3IDUuNjQ4MTQgMjEuOTkwNyA2LjAwOTIzQzIyLjM1MTggNi4zNzAzMSAyMi42NDg5IDYuOTE3NTUgMjIuODIwOCA4LjE5NjE4QzIyLjk1ODggOS4yMjIwMSAyMi45OTM2IDEwLjUxNTYgMjMuMDAyMyAxMi4yNjY2Wk0xNS4xMjQgMjQuNjU4N0wxNi45MTQyIDIwLjQ0MjlDMTYuOTcyNSAyMC4zMTE2IDE3LjA2NzcgMjAuMTUwNSAxNy4yMzIzIDIwLjA0OTZDMTcuMzgzMiAxOS45NTUxIDE3LjU1MTMgMTkuOTI2MyAxNy43MDMyIDE5LjkyNjNDMTcuODM4OCAxOS45MjYzIDE3Ljk4NCAxOS45NTEgMTguMTE5NCAyMC4wMjM3QzE4LjI1NTkgMjAuMDk2OSAxOC4zNTkyIDIwLjIwNjYgMTguNDI3NCAyMC4zMzgxQzE4LjU2OTkgMjAuNTk1MyAxOC41NTExIDIwLjg3MSAxOC40NDA4IDIxLjExM0wxNS45MjI3IDI2Ljg4OTJDMTUuODU4NCAyNy4wMzYxIDE1Ljc2MjEgMjcuMTcwNSAxNS42MjYyIDI3LjI3MjRMMTUuNjIxMiAyNy4yNzYxQzE1LjQ2OTYgMjcuMzg2NCAxNS4yOTYyIDI3LjQyNTYgMTUuMTMyNSAyNy40MjU2QzE0Ljk2NDYgMjcuNDI1NiAxNC43OTgxIDI3LjM4MDkgMTQuNjUxNyAyNy4yNzgxQzE0LjUwODYgMjcuMTc3NiAxNC40MTA4IDI3LjA0MDEgMTQuMzQ1IDI2Ljg5NTJMMTQuMzQyNCAyNi44ODk2TDExLjg0NDcgMjEuMTc4QzExLjc0MTggMjAuOTI4MiAxMS42OTIxIDIwLjYyOSAxMS44MzIxIDIwLjM0ODhDMTEuOTg2NiAyMC4wMzk5IDEyLjI4MzMgMTkuOTI2MyAxMi41NzAzIDE5LjkyNjNDMTIuNzMzIDE5LjkyNjMgMTIuOTAxNCAxOS45NjI4IDEzLjA1MjMgMjAuMDYwNEMxMy4yMDQ1IDIwLjE1ODYgMTMuMzA3MyAyMC4yOTg0IDEzLjM3MTQgMjAuNDUxMkwxMy4zNzE4IDIwLjQ1MjFMMTUuMTI0IDI0LjY1ODdaTTIxLjI4OTUgMjQuMjEwMVYyNi41NTc0QzIxLjI4OTUgMjYuNzkwNCAyMS4yMDUzIDI3LjAwNTEgMjEuMDM3MSAyNy4xNzMzQzIwLjg2ODkgMjcuMzQxNSAyMC42NTQzIDI3LjQyNTYgMjAuNDIxMiAyNy40MjU2QzIwLjE4ODIgMjcuNDI1NiAxOS45NzM1IDI3LjM0MTUgMTkuODA1MyAyNy4xNzMzQzE5LjYzNzEgMjcuMDA1MSAxOS41NTMgMjYuNzkwNCAxOS41NTMgMjYuNTU3NFYyMC43OTQ2QzE5LjU1MyAyMC41NjQxIDE5LjYzMiAyMC4zNDMgMTkuODEwNCAyMC4xNzM1QzE5Ljk3NzkgMjAuMDA4OCAyMC4xOTA1IDE5LjkyNjMgMjAuNDIxMiAxOS45MjYzQzIwLjc1NzcgMTkuOTI2MyAyMS4wMjI3IDIwLjA5OTcgMjEuMTgyMyAyMC4zNzkxTDIxLjE4ODIgMjAuMzg5NUwyMy4zMzQyIDI0LjY4ODNMMjUuNDI0NCAyMC4zOTE0TDI1LjQzMTQgMjAuMzc5MUMyNS41OTExIDIwLjA5OTcgMjUuODU2MSAxOS45MjYzIDI2LjE5MjUgMTkuOTI2M0MyNi40MjMyIDE5LjkyNjMgMjYuNjM1OSAyMC4wMDg4IDI2LjgwMzMgMjAuMTczNkMyNi45ODE4IDIwLjM0MyAyNy4wNjA4IDIwLjU2NDEgMjcuMDYwOCAyMC43OTQ2VjI2LjU1NzRDMjcuMDYwOCAyNi43OTcxIDI2Ljk2ODggMjcuMDEyOCAyNi43OTUxIDI3LjE3ODFDMjYuNjMxOCAyNy4zMzkgMjYuNDIzNiAyNy40MjU2IDI2LjE5MjUgMjcuNDI1NkMyNS45NTk1IDI3LjQyNTYgMjUuNzQ0OCAyNy4zNDE1IDI1LjU3NjYgMjcuMTczM0MyNS40MDg0IDI3LjAwNTEgMjUuMzI0MyAyNi43OTA0IDI1LjMyNDMgMjYuNTU3NFYyNC4xNTg1TDI0LjA2MDUgMjYuNzM0M0wyNC4wNDYyIDI2Ljc1NjJDMjMuODgxMiAyNy4wMDg1IDIzLjYyNzEgMjcuMTcwMiAyMy4zMDY5IDI3LjE3MDJDMjMuMTQ0MyAyNy4xNzAyIDIyLjk4MDQgMjcuMTMxMiAyMi44MzM0IDI3LjAzNjJDMjIuNjg4MyAyNi45NDI1IDIyLjU4NiAyNi44MTE1IDIyLjUxNjUgMjYuNjY4OEwyMS4yODk1IDI0LjIxMDFaIiBjbGlwLXJ1bGU9ImV2ZW5vZGQiIGZpbGwtcnVsZT0iZXZlbm9kZCIvPiYjeGE7PC9zdmc+;fontSize=16;strokeWidth=0;fontFamily=VK Sans Display;fontSource=https%3A%2F%2Ffonts.googleapis.com%2Fcss%3Ffamily%3DArchitects%2BDaughter;" parent="g7Od-292g7PqaHPzFKWb-1" vertex="1">
          <mxGeometry x="140" y="340" width="40" height="40" as="geometry" />
        </mxCell>
        <mxCell id="g7Od-292g7PqaHPzFKWb-13" style="edgeStyle=orthogonalEdgeStyle;shape=connector;rounded=0;hachureGap=4;orthogonalLoop=1;jettySize=auto;html=1;exitX=0;exitY=0.5;exitDx=0;exitDy=0;entryX=1;entryY=0.5;entryDx=0;entryDy=0;labelBackgroundColor=default;strokeColor=#7C8A9A;strokeWidth=2;fontFamily=Architects Daughter;fontSource=https%3A%2F%2Ffonts.googleapis.com%2Fcss%3Ffamily%3DArchitects%2BDaughter;fontSize=16;fontColor=default;startArrow=oval;startFill=1;endArrow=oval;endFill=1;" parent="g7Od-292g7PqaHPzFKWb-1" target="g7Od-292g7PqaHPzFKWb-27" edge="1">
          <mxGeometry relative="1" as="geometry">
            <mxPoint x="138" y="240" as="sourcePoint" />
          </mxGeometry>
        </mxCell>
        <mxCell id="g7Od-292g7PqaHPzFKWb-15" style="edgeStyle=orthogonalEdgeStyle;shape=connector;rounded=0;hachureGap=4;orthogonalLoop=1;jettySize=auto;html=1;entryX=1;entryY=0.5;entryDx=0;entryDy=0;labelBackgroundColor=default;strokeColor=#7C8A9A;strokeWidth=2;fontFamily=Architects Daughter;fontSource=https%3A%2F%2Ffonts.googleapis.com%2Fcss%3Ffamily%3DArchitects%2BDaughter;fontSize=16;fontColor=default;startArrow=oval;startFill=1;endArrow=oval;endFill=1;" parent="g7Od-292g7PqaHPzFKWb-1" target="g7Od-292g7PqaHPzFKWb-12" edge="1">
          <mxGeometry relative="1" as="geometry">
            <mxPoint x="318" y="360" as="sourcePoint" />
          </mxGeometry>
        </mxCell>
        <mxCell id="g7Od-292g7PqaHPzFKWb-16" value="&lt;font data-font-src=&quot;https://fonts.googleapis.com/css?family=Architects+Daughter&quot; face=&quot;VK Sans Display&quot;&gt;172.17.0.100&lt;/font&gt;" style="edgeLabel;html=1;align=center;verticalAlign=middle;resizable=0;points=[];fontSize=16;fontFamily=Architects Daughter;fontColor=default;textOpacity=70;" parent="g7Od-292g7PqaHPzFKWb-15" vertex="1" connectable="0">
          <mxGeometry x="0.0684" relative="1" as="geometry">
            <mxPoint x="5" as="offset" />
          </mxGeometry>
        </mxCell>
        <mxCell id="g7Od-292g7PqaHPzFKWb-17" style="edgeStyle=orthogonalEdgeStyle;shape=connector;rounded=1;hachureGap=4;orthogonalLoop=1;jettySize=auto;html=1;labelBackgroundColor=default;strokeColor=#7C8A9A;strokeWidth=2;fontFamily=Architects Daughter;fontSource=https%3A%2F%2Ffonts.googleapis.com%2Fcss%3Ffamily%3DArchitects%2BDaughter;fontSize=16;fontColor=default;startArrow=oval;startFill=1;endArrow=oval;endFill=1;entryX=0.199;entryY=1.02;entryDx=0;entryDy=0;entryPerimeter=0;" parent="g7Od-292g7PqaHPzFKWb-1" target="g7Od-292g7PqaHPzFKWb-8" edge="1">
          <mxGeometry relative="1" as="geometry">
            <mxPoint x="364" y="361" as="sourcePoint" />
            <mxPoint x="508" y="340" as="targetPoint" />
          </mxGeometry>
        </mxCell>
        <mxCell id="g7Od-292g7PqaHPzFKWb-18" value="&lt;font data-font-src=&quot;https://fonts.googleapis.com/css?family=Architects+Daughter&quot; face=&quot;VK Sans Display&quot;&gt;172.20.2.215&lt;/font&gt;" style="edgeLabel;html=1;align=center;verticalAlign=middle;resizable=0;points=[];fontSize=16;fontFamily=Architects Daughter;fontColor=default;textOpacity=70;" parent="g7Od-292g7PqaHPzFKWb-17" vertex="1" connectable="0">
          <mxGeometry x="-0.0296" relative="1" as="geometry">
            <mxPoint x="10" as="offset" />
          </mxGeometry>
        </mxCell>
        <mxCell id="g7Od-292g7PqaHPzFKWb-20" value="10.0.0.5" style="shape=image;verticalLabelPosition=bottom;labelBackgroundColor=default;verticalAlign=top;aspect=fixed;imageAspect=0;image=data:image/svg+xml,PHN2ZyB4bWxucz0iaHR0cDovL3d3dy53My5vcmcvMjAwMC9zdmciIGZpbGw9Im5vbmUiIHZpZXdCb3g9IjAgMCAyOCAyOCIgaGVpZ2h0PSIyOCIgd2lkdGg9IjI4Ij4mI3hhOzxwYXRoIGZpbGw9IiMzMzMzMzMiIGQ9Ik0yLjkxNjY2IDE0QzIuOTE2NjYgOC43NzUyNiAyLjkxNjY2IDYuMTYyODkgNC41Mzk3NyA0LjUzOTc3QzYuMTYyODkgMi45MTY2NiA4Ljc3NTI2IDIuOTE2NjYgMTQgMi45MTY2NkMxOS4yMjQ3IDIuOTE2NjYgMjEuODM3MSAyLjkxNjY2IDIzLjQ2MDIgNC41Mzk3N0MyNS4wODMzIDYuMTYyODkgMjUuMDgzMyA4Ljc3NTI2IDI1LjA4MzMgMTRDMjUuMDgzMyAxNS4xNjI2IDI1LjA2MDIgMTYuNDc3NiAyNS4wMzA4IDE3LjUzOThDMjUuMDE1OSAxOC4wNzU5IDI0LjU3NTYgMTguNSAyNC4wMzkzIDE4LjVDMjMuNDczMyAxOC41IDIzLjAxNDkgMTguMDI5MiAyMy4wMTIxIDE3LjQ2MzFDMjMuMDExMSAxNy4yNTUxIDIzLjAwOTIgMTcuMDM4NiAyMy4wMDczIDE2LjgyM0MyMy4wMDQgMTYuNDM5MiAyMy4wMDA3IDE2LjA1ODMgMjMuMDAyMyAxNS43MzM0QzIzLjAwNDIgMTUuMzUwMyAyMi42OTM2IDE1LjAzOTEgMjIuMzEwNiAxNS4wMzkxSDUuNjg5MzlDNS4zMDYzNCAxNS4wMzkxIDQuOTk1NzcgMTUuMzUwMyA0Ljk5NzY4IDE1LjczMzRDNS4wMDY0MiAxNy40ODQzIDUuMDQxMjIgMTguNzc4IDUuMTc5MTQgMTkuODAzOEM1LjM1MTA1IDIxLjA4MjQgNS42NDgxNCAyMS42Mjk3IDYuMDA5MjMgMjEuOTkwN0M2LjM3MDMxIDIyLjM1MTggNi45MTc1NSAyMi42NDg5IDguMTk2MTggMjIuODIwOEM4LjQ0NzY1IDIyLjg1NDYgOC43MTUyMSAyMi44ODIzIDkuMDAxNjUgMjIuOTA0OEM5LjU1ODQxIDIyLjk0ODYgMTAgMjMuNDAzMSAxMCAyMy45NjE2QzEwIDI0LjU1MTEgOS41MDk0IDI1LjAyNjQgOC45MjE1IDI0Ljk4MjZDNi44NjE1MyAyNC44Mjg4IDUuNTIwMTggMjQuNDQwNiA0LjUzOTc3IDIzLjQ2MDJDMi45MTY2NiAyMS44MzcxIDIuOTE2NjYgMTkuMjI0NyAyLjkxNjY2IDE0Wk0yMy4wMDIzIDEyLjI2NjZDMjMuMDA0MiAxMi42NDk2IDIyLjY5MzYgMTIuOTYwOSAyMi4zMTA2IDEyLjk2MDlINS42ODkzOUM1LjMwNjM0IDEyLjk2MDkgNC45OTU3NyAxMi42NDk2IDQuOTk3NjggMTIuMjY2NkM1LjAwNjQyIDEwLjUxNTYgNS4wNDEyMiA5LjIyMjAxIDUuMTc5MTQgOC4xOTYxOEM1LjM1MTA1IDYuOTE3NTUgNS42NDgxNCA2LjM3MDMxIDYuMDA5MjMgNi4wMDkyM0M2LjM3MDMxIDUuNjQ4MTQgNi45MTc1NSA1LjM1MTA1IDguMTk2MTggNS4xNzkxNEM5LjUzNDU5IDQuOTk5MiAxMS4zMjg5IDQuOTk0NzggMTQgNC45OTQ3OEMxNi42NzExIDQuOTk0NzggMTguNDY1NCA0Ljk5OTIgMTkuODAzOCA1LjE3OTE0QzIxLjA4MjQgNS4zNTEwNSAyMS42Mjk3IDUuNjQ4MTQgMjEuOTkwNyA2LjAwOTIzQzIyLjM1MTggNi4zNzAzMSAyMi42NDg5IDYuOTE3NTUgMjIuODIwOCA4LjE5NjE4QzIyLjk1ODggOS4yMjIwMSAyMi45OTM2IDEwLjUxNTYgMjMuMDAyMyAxMi4yNjY2Wk0xNS4xMjQgMjQuNjU4N0wxNi45MTQyIDIwLjQ0MjlDMTYuOTcyNSAyMC4zMTE2IDE3LjA2NzcgMjAuMTUwNSAxNy4yMzIzIDIwLjA0OTZDMTcuMzgzMiAxOS45NTUxIDE3LjU1MTMgMTkuOTI2MyAxNy43MDMyIDE5LjkyNjNDMTcuODM4OCAxOS45MjYzIDE3Ljk4NCAxOS45NTEgMTguMTE5NCAyMC4wMjM3QzE4LjI1NTkgMjAuMDk2OSAxOC4zNTkyIDIwLjIwNjYgMTguNDI3NCAyMC4zMzgxQzE4LjU2OTkgMjAuNTk1MyAxOC41NTExIDIwLjg3MSAxOC40NDA4IDIxLjExM0wxNS45MjI3IDI2Ljg4OTJDMTUuODU4NCAyNy4wMzYxIDE1Ljc2MjEgMjcuMTcwNSAxNS42MjYyIDI3LjI3MjRMMTUuNjIxMiAyNy4yNzYxQzE1LjQ2OTYgMjcuMzg2NCAxNS4yOTYyIDI3LjQyNTYgMTUuMTMyNSAyNy40MjU2QzE0Ljk2NDYgMjcuNDI1NiAxNC43OTgxIDI3LjM4MDkgMTQuNjUxNyAyNy4yNzgxQzE0LjUwODYgMjcuMTc3NiAxNC40MTA4IDI3LjA0MDEgMTQuMzQ1IDI2Ljg5NTJMMTQuMzQyNCAyNi44ODk2TDExLjg0NDcgMjEuMTc4QzExLjc0MTggMjAuOTI4MiAxMS42OTIxIDIwLjYyOSAxMS44MzIxIDIwLjM0ODhDMTEuOTg2NiAyMC4wMzk5IDEyLjI4MzMgMTkuOTI2MyAxMi41NzAzIDE5LjkyNjNDMTIuNzMzIDE5LjkyNjMgMTIuOTAxNCAxOS45NjI4IDEzLjA1MjMgMjAuMDYwNEMxMy4yMDQ1IDIwLjE1ODYgMTMuMzA3MyAyMC4yOTg0IDEzLjM3MTQgMjAuNDUxMkwxMy4zNzE4IDIwLjQ1MjFMMTUuMTI0IDI0LjY1ODdaTTIxLjI4OTUgMjQuMjEwMVYyNi41NTc0QzIxLjI4OTUgMjYuNzkwNCAyMS4yMDUzIDI3LjAwNTEgMjEuMDM3MSAyNy4xNzMzQzIwLjg2ODkgMjcuMzQxNSAyMC42NTQzIDI3LjQyNTYgMjAuNDIxMiAyNy40MjU2QzIwLjE4ODIgMjcuNDI1NiAxOS45NzM1IDI3LjM0MTUgMTkuODA1MyAyNy4xNzMzQzE5LjYzNzEgMjcuMDA1MSAxOS41NTMgMjYuNzkwNCAxOS41NTMgMjYuNTU3NFYyMC43OTQ2QzE5LjU1MyAyMC41NjQxIDE5LjYzMiAyMC4zNDMgMTkuODEwNCAyMC4xNzM1QzE5Ljk3NzkgMjAuMDA4OCAyMC4xOTA1IDE5LjkyNjMgMjAuNDIxMiAxOS45MjYzQzIwLjc1NzcgMTkuOTI2MyAyMS4wMjI3IDIwLjA5OTcgMjEuMTgyMyAyMC4zNzkxTDIxLjE4ODIgMjAuMzg5NUwyMy4zMzQyIDI0LjY4ODNMMjUuNDI0NCAyMC4zOTE0TDI1LjQzMTQgMjAuMzc5MUMyNS41OTExIDIwLjA5OTcgMjUuODU2MSAxOS45MjYzIDI2LjE5MjUgMTkuOTI2M0MyNi40MjMyIDE5LjkyNjMgMjYuNjM1OSAyMC4wMDg4IDI2LjgwMzMgMjAuMTczNkMyNi45ODE4IDIwLjM0MyAyNy4wNjA4IDIwLjU2NDEgMjcuMDYwOCAyMC43OTQ2VjI2LjU1NzRDMjcuMDYwOCAyNi43OTcxIDI2Ljk2ODggMjcuMDEyOCAyNi43OTUxIDI3LjE3ODFDMjYuNjMxOCAyNy4zMzkgMjYuNDIzNiAyNy40MjU2IDI2LjE5MjUgMjcuNDI1NkMyNS45NTk1IDI3LjQyNTYgMjUuNzQ0OCAyNy4zNDE1IDI1LjU3NjYgMjcuMTczM0MyNS40MDg0IDI3LjAwNTEgMjUuMzI0MyAyNi43OTA0IDI1LjMyNDMgMjYuNTU3NFYyNC4xNTg1TDI0LjA2MDUgMjYuNzM0M0wyNC4wNDYyIDI2Ljc1NjJDMjMuODgxMiAyNy4wMDg1IDIzLjYyNzEgMjcuMTcwMiAyMy4zMDY5IDI3LjE3MDJDMjMuMTQ0MyAyNy4xNzAyIDIyLjk4MDQgMjcuMTMxMiAyMi44MzM0IDI3LjAzNjJDMjIuNjg4MyAyNi45NDI1IDIyLjU4NiAyNi44MTE1IDIyLjUxNjUgMjYuNjY4OEwyMS4yODk1IDI0LjIxMDFaIiBjbGlwLXJ1bGU9ImV2ZW5vZGQiIGZpbGwtcnVsZT0iZXZlbm9kZCIvPiYjeGE7PC9zdmc+;fontFamily=VK Sans Display;fontSource=https%3A%2F%2Ffonts.googleapis.com%2Fcss%3Ffamily%3DArchitects%2BDaughter;fontSize=16;" parent="g7Od-292g7PqaHPzFKWb-1" vertex="1">
          <mxGeometry x="1090" y="339" width="40" height="40" as="geometry" />
        </mxCell>
        <mxCell id="g7Od-292g7PqaHPzFKWb-21" style="edgeStyle=orthogonalEdgeStyle;rounded=0;hachureGap=4;orthogonalLoop=1;jettySize=auto;html=1;entryX=0;entryY=0.5;entryDx=0;entryDy=0;fontFamily=Architects Daughter;fontSource=https%3A%2F%2Ffonts.googleapis.com%2Fcss%3Ffamily%3DArchitects%2BDaughter;fontSize=16;strokeWidth=2;endArrow=oval;endFill=1;startArrow=oval;startFill=1;strokeColor=#7C8A9A;" parent="g7Od-292g7PqaHPzFKWb-1" target="g7Od-292g7PqaHPzFKWb-20" edge="1">
          <mxGeometry relative="1" as="geometry">
            <mxPoint x="963" y="360" as="sourcePoint" />
          </mxGeometry>
        </mxCell>
        <mxCell id="g7Od-292g7PqaHPzFKWb-22" value="10.0.0.15" style="edgeLabel;html=1;align=center;verticalAlign=middle;resizable=0;points=[];fontSize=16;fontFamily=VK Sans Display;fontSource=https%3A%2F%2Ffonts.googleapis.com%2Fcss%3Ffamily%3DArchitects%2BDaughter;textOpacity=70;" parent="g7Od-292g7PqaHPzFKWb-21" vertex="1" connectable="0">
          <mxGeometry x="-0.1161" y="-1" relative="1" as="geometry">
            <mxPoint x="11" y="-3" as="offset" />
          </mxGeometry>
        </mxCell>
        <mxCell id="g7Od-292g7PqaHPzFKWb-23" style="edgeStyle=orthogonalEdgeStyle;shape=connector;rounded=1;hachureGap=4;orthogonalLoop=1;jettySize=auto;html=1;labelBackgroundColor=default;strokeColor=#7C8A9A;strokeWidth=2;fontFamily=Architects Daughter;fontSource=https%3A%2F%2Ffonts.googleapis.com%2Fcss%3Ffamily%3DArchitects%2BDaughter;fontSize=16;fontColor=default;startArrow=oval;startFill=1;endArrow=oval;endFill=1;" parent="g7Od-292g7PqaHPzFKWb-1" edge="1">
          <mxGeometry relative="1" as="geometry">
            <mxPoint x="919" y="360" as="sourcePoint" />
            <mxPoint x="770" y="341" as="targetPoint" />
            <Array as="points">
              <mxPoint x="921" y="360" />
              <mxPoint x="770" y="360" />
            </Array>
          </mxGeometry>
        </mxCell>
        <mxCell id="g7Od-292g7PqaHPzFKWb-24" value="&lt;font data-font-src=&quot;https://fonts.googleapis.com/css?family=Architects+Daughter&quot; face=&quot;VK Sans Display&quot;&gt;172.20.2.204&lt;/font&gt;" style="edgeLabel;html=1;align=center;verticalAlign=middle;resizable=0;points=[];fontSize=16;fontFamily=Architects Daughter;fontColor=default;textOpacity=70;" parent="g7Od-292g7PqaHPzFKWb-23" vertex="1" connectable="0">
          <mxGeometry x="0.0502" y="1" relative="1" as="geometry">
            <mxPoint x="-7" y="-2" as="offset" />
          </mxGeometry>
        </mxCell>
        <mxCell id="g7Od-292g7PqaHPzFKWb-26" value="" style="shape=image;verticalLabelPosition=bottom;labelBackgroundColor=default;verticalAlign=top;aspect=fixed;imageAspect=0;image=data:image/svg+xml,PHN2ZyB4bWxucz0iaHR0cDovL3d3dy53My5vcmcvMjAwMC9zdmciIGZpbGw9Im5vbmUiIHZpZXdCb3g9IjAgMCAyOCAyOCIgaGVpZ2h0PSIyOCIgd2lkdGg9IjI4Ij4mI3hhOzxwYXRoIGZpbGw9IiMzMzMzMzMiIGQ9Ik0yNS4wODMzIDcuMDcyOTRDMjUuMDgzMyA5LjM2ODM3IDIzLjIyMjUgMTEuMjI5MiAyMC45MjcxIDExLjIyOTJDMjAuMzcwOSAxMS4yMjkyIDE5Ljg0MDIgMTEuMTE5OSAxOS4zNTU0IDEwLjkyMTdDMTkuMDUxNyAxMC43OTc2IDE4LjY5MzQgMTAuODQ5MSAxOC40NzQ3IDExLjA5MzdMMTYuMjgzMSAxMy41NDQ2QzE2LjA0OCAxMy44MDc1IDE2LjA0OCAxNC4yMDUxIDE2LjI4MzEgMTQuNDY4TDE4LjQ2NiAxNi45MDk5QzE4LjY4NSAxNy4xNTQ5IDE5LjA0NDEgMTcuMjA2MiAxOS4zNDgyIDE3LjA4MTNDMTkuODM1IDE2Ljg4MTIgMjAuMzY4MSAxNi43NzA5IDIwLjkyNzEgMTYuNzcwOUMyMy4yMjI1IDE2Ljc3MDkgMjUuMDgzMyAxOC42MzE3IDI1LjA4MzMgMjAuOTI3MUMyNS4wODMzIDIzLjIyMjUgMjMuMjIyNSAyNS4wODM0IDIwLjkyNzEgMjUuMDgzNEMxOC42MzE2IDI1LjA4MzQgMTYuNzcwOCAyMy4yMjI1IDE2Ljc3MDggMjAuOTI3MUMxNi43NzA4IDIwLjMyNzYgMTYuODk3OCAxOS43NTc3IDE3LjEyNjIgMTkuMjQyOUMxNy4yNDk1IDE4Ljk2NSAxNy4yMjM1IDE4LjYzNSAxNy4wMjA2IDE4LjQwODZMMTQuMjA2NSAxNS4yNjk0QzE0LjA3NTEgMTUuMTIyOCAxMy44ODc1IDE1LjAzOTEgMTMuNjkwNyAxNS4wMzkxSDExLjYzNTJDMTEuMzE5MSAxNS4wMzkxIDExLjA0ODggMTUuMjU1OCAxMC45MzA5IDE1LjU0OUMxMC4zMTY3IDE3LjA3NzMgOC44MjA4MyAxOC4xNTYzIDcuMDcyOTEgMTguMTU2M0M0Ljc3NzQ3IDE4LjE1NjMgMi45MTY2NiAxNi4yOTU1IDIuOTE2NjYgMTRDMi45MTY2NiAxMS43MDQ2IDQuNzc3NDcgOS44NDM3NyA3LjA3MjkxIDkuODQzNzdDOC44MjA4MyA5Ljg0Mzc3IDEwLjMxNjcgMTAuOTIyOCAxMC45MzA5IDEyLjQ1MUMxMS4wNDg4IDEyLjc0NDMgMTEuMzE5MSAxMi45NjEgMTEuNjM1MiAxMi45NjFIMTMuNjkxNEMxMy44ODc4IDEyLjk2MSAxNC4wNzUgMTIuODc3NiAxNC4yMDY0IDEyLjczMTVMMTcuMDIzMiA5LjYwMDE5QzE3LjIyNzIgOS4zNzM0MiAxNy4yNTMzIDkuMDQyMTIgMTcuMTI5MSA4Ljc2MzU0QzE2Ljg5ODggOC4yNDcwNSAxNi43NzA4IDcuNjc0OTQgMTYuNzcwOCA3LjA3Mjk0QzE2Ljc3MDggNC43Nzc1IDE4LjYzMTYgMi45MTY2OSAyMC45MjcxIDIuOTE2NjlDMjMuMjIyNSAyLjkxNjY5IDI1LjA4MzMgNC43Nzc1IDI1LjA4MzMgNy4wNzI5NFpNMjMuMDA1MiA3LjA3Mjk0QzIzLjAwNTIgOC4yMjA2NSAyMi4wNzQ4IDkuMTUxMDYgMjAuOTI3MSA5LjE1MTA2QzE5Ljc3OTQgOS4xNTEwNiAxOC44NDg5IDguMjIwNjUgMTguODQ4OSA3LjA3Mjk0QzE4Ljg0ODkgNS45MjUyMiAxOS43Nzk0IDQuOTk0ODEgMjAuOTI3MSA0Ljk5NDgxQzIyLjA3NDggNC45OTQ4MSAyMy4wMDUyIDUuOTI1MjIgMjMuMDA1MiA3LjA3Mjk0Wk05LjE1MTAzIDE0QzkuMTUxMDMgMTUuMTQ3NyA4LjIyMDYyIDE2LjA3ODEgNy4wNzI5MSAxNi4wNzgxQzUuOTI1MTkgMTYuMDc4MSA0Ljk5NDc4IDE1LjE0NzcgNC45OTQ3OCAxNEM0Ljk5NDc4IDEyLjg1MjMgNS45MjUxOSAxMS45MjE5IDcuMDcyOTEgMTEuOTIxOUM4LjIyMDYyIDExLjkyMTkgOS4xNTEwMyAxMi44NTIzIDkuMTUxMDMgMTRaTTIwLjkyNzEgMjMuMDA1MkMyMi4wNzQ4IDIzLjAwNTIgMjMuMDA1MiAyMi4wNzQ4IDIzLjAwNTIgMjAuOTI3MUMyMy4wMDUyIDE5Ljc3OTQgMjIuMDc0OCAxOC44NDkgMjAuOTI3MSAxOC44NDlDMTkuNzc5NCAxOC44NDkgMTguODQ4OSAxOS43Nzk0IDE4Ljg0ODkgMjAuOTI3MUMxOC44NDg5IDIyLjA3NDggMTkuNzc5NCAyMy4wMDUyIDIwLjkyNzEgMjMuMDA1MloiIGNsaXAtcnVsZT0iZXZlbm9kZCIgZmlsbC1ydWxlPSJldmVub2RkIi8+JiN4YTs8L3N2Zz4=;" parent="g7Od-292g7PqaHPzFKWb-1" vertex="1">
          <mxGeometry x="1110" y="128" width="40" height="40" as="geometry" />
        </mxCell>
        <mxCell id="g7Od-292g7PqaHPzFKWb-27" value="Internet" style="shape=image;verticalLabelPosition=bottom;labelBackgroundColor=default;verticalAlign=top;aspect=fixed;imageAspect=0;image=data:image/svg+xml,PHN2ZyB4bWxucz0iaHR0cDovL3d3dy53My5vcmcvMjAwMC9zdmciIGZpbGw9Im5vbmUiIHZpZXdCb3g9IjAgMCAyOCAyOCIgaGVpZ2h0PSIyOCIgd2lkdGg9IjI4Ij4mI3hhOzxwYXRoIGZpbGw9IiMwMDc3RkYiIGQ9Ik0xNC4wMDI4IDJMMTQgMkM3LjM3MjU4IDIgMiA3LjM3MjU4IDIgMTRDMiAyMC42Mjc0IDcuMzcyNTggMjYgMTQgMjZDMjAuNjI3NCAyNiAyNiAyMC42Mjc0IDI2IDE0QzI2IDcuMzczNSAyMC42Mjg5IDIuMDAxNDkgMTQuMDAyOCAyWk0xNi4zMTM4IDIzLjczMUMxOS4wMjI2IDIzLjA4OTMgMjEuMzA1MiAyMS4zNDU5IDIyLjY2MjIgMTlIMTguMzc4N0MxNy45Nzc5IDIwLjUyODYgMTcuNDI5NiAyMS43OTE0IDE2Ljg3NTYgMjIuNzk1NkMxNi42ODY4IDIzLjEzNzcgMTYuNDk3NyAyMy40NDk0IDE2LjMxMzggMjMuNzMxWk0xOC43ODUzIDE3SDIzLjU0MjJDMjMuODM5NiAxNi4wNTMgMjQgMTUuMDQ1MiAyNCAxNEMyNCAxMi45NTQ4IDIzLjgzOTYgMTEuOTQ3IDIzLjU0MjIgMTFIMTguNzg1M0MxOC45MjE0IDExLjkyNDQgMTkgMTIuOTI0IDE5IDE0QzE5IDE1LjA3NiAxOC45MjE0IDE2LjA3NTYgMTguNzg1MyAxN1pNMTYuNzYxMiAxMUMxNi45MTExIDExLjkwOTcgMTcgMTIuOTA5IDE3IDE0QzE3IDE1LjA5MSAxNi45MTExIDE2LjA5MDMgMTYuNzYxMiAxN0gxMS4yMzg4QzExLjA4ODkgMTYuMDkwMyAxMSAxNS4wOTEgMTEgMTRDMTEgMTIuOTA5IDExLjA4ODkgMTEuOTA5NyAxMS4yMzg4IDExSDE2Ljc2MTJaTTE4LjM3ODcgOUgyMi42NjIyQzIxLjMwNTIgNi42NTQxNCAxOS4wMjI2IDQuOTEwNjkgMTYuMzEzOCA0LjI2OTAzQzE2LjQ5NzcgNC41NTA2NCAxNi42ODY4IDQuODYyMzEgMTYuODc1NiA1LjIwNDQyQzE3LjQyOTYgNi4yMDg2IDE3Ljk3NzkgNy40NzE0NSAxOC4zNzg3IDlaTTExLjY4NjIgNC4yNjkwM0M4Ljk3NzQyIDQuOTEwNjkgNi42OTQ4MyA2LjY1NDE0IDUuMzM3ODIgOUg5LjYyMTMxQzEwLjAyMjEgNy40NzE0NSAxMC41NzA0IDYuMjA4NiAxMS4xMjQ0IDUuMjA0NDJDMTEuMzEzMiA0Ljg2MjMxIDExLjUwMjMgNC41NTA2NCAxMS42ODYyIDQuMjY5MDNaTTExLjY5OCA5QzEyLjAzNTcgNy44Njg2MiAxMi40NTc4IDYuOTI3NzMgMTIuODc1NiA2LjE3MDU4QzEzLjI3OTEgNS40MzkxOCAxMy42ODAxIDQuODc2NjYgMTQgNC40NzgzNkMxNC4zMTk5IDQuODc2NjYgMTQuNzIwOSA1LjQzOTE4IDE1LjEyNDQgNi4xNzA1OEMxNS41NDIyIDYuOTI3NzMgMTUuOTY0MyA3Ljg2ODYyIDE2LjMwMiA5SDExLjY5OFpNOS4yMTQ2OCAxMUg0LjQ1NzhDNC4xNjAzNSAxMS45NDcgNCAxMi45NTQ4IDQgMTRDNCAxNS4wNDUyIDQuMTYwMzUgMTYuMDUzIDQuNDU3OCAxN0g5LjIxNDY4QzkuMDc4NTcgMTYuMDc1NiA5IDE1LjA3NiA5IDE0QzkgMTIuOTI0IDkuMDc4NTcgMTEuOTI0NCA5LjIxNDY4IDExWk05LjYyMTMxIDE5SDUuMzM3ODJDNi42OTQ4MyAyMS4zNDU5IDguOTc3NDIgMjMuMDg5MyAxMS42ODYyIDIzLjczMUMxMS41MDIzIDIzLjQ0OTQgMTEuMzEzMiAyMy4xMzc3IDExLjEyNDQgMjIuNzk1NkMxMC41NzA0IDIxLjc5MTQgMTAuMDIyMSAyMC41Mjg2IDkuNjIxMzEgMTlaTTExLjY5OCAxOUgxNi4zMDJDMTUuOTY0MyAyMC4xMzE0IDE1LjU0MjIgMjEuMDcyMyAxNS4xMjQ0IDIxLjgyOTRDMTQuNzIwOSAyMi41NjA4IDE0LjMxOTkgMjMuMTIzMyAxNCAyMy41MjE2QzEzLjY4MDEgMjMuMTIzMyAxMy4yNzkxIDIyLjU2MDggMTIuODc1NiAyMS44Mjk0QzEyLjQ1NzggMjEuMDcyMyAxMi4wMzU3IDIwLjEzMTQgMTEuNjk4IDE5WiIgY2xpcC1ydWxlPSJldmVub2RkIiBmaWxsLXJ1bGU9ImV2ZW5vZGQiLz4mI3hhOzwvc3ZnPg==;fontSize=16;fontFamily=VK Sans Display;fontSource=https%3A%2F%2Ffonts.googleapis.com%2Fcss%3Ffamily%3DArchitects%2BDaughter;" parent="g7Od-292g7PqaHPzFKWb-1" vertex="1">
          <mxGeometry x="40" y="220" width="40" height="40" as="geometry" />
        </mxCell>
        <mxCell id="g7Od-292g7PqaHPzFKWb-28" value="&lt;font data-font-src=&quot;https://fonts.googleapis.com/css?family=Architects+Daughter&quot; face=&quot;VK Sans Display&quot;&gt;Direct Connect&lt;/font&gt;" style="text;html=1;strokeColor=none;fillColor=none;align=center;verticalAlign=middle;whiteSpace=wrap;rounded=0;fontSize=16;fontFamily=Architects Daughter;fontColor=default;" parent="g7Od-292g7PqaHPzFKWb-1" vertex="1">
          <mxGeometry x="560" y="342" width="150" height="30" as="geometry" />
        </mxCell>
        <mxCell id="g7Od-292g7PqaHPzFKWb-29" value="" style="shape=image;verticalLabelPosition=bottom;labelBackgroundColor=default;verticalAlign=top;aspect=fixed;imageAspect=0;image=data:image/svg+xml,PHN2ZyB4bWxucz0iaHR0cDovL3d3dy53My5vcmcvMjAwMC9zdmciIGZpbGw9Im5vbmUiIHZpZXdCb3g9IjAgMCAyOCAyOCIgaGVpZ2h0PSIyOCIgd2lkdGg9IjI4Ij4mI3hhOzxwYXRoIGZpbGw9IndoaXRlIiBkPSJNMjUuMDgzMyA3LjA3Mjk0QzI1LjA4MzMgOS4zNjgzNyAyMy4yMjI1IDExLjIyOTIgMjAuOTI3MSAxMS4yMjkyQzIwLjM3MDkgMTEuMjI5MiAxOS44NDAyIDExLjExOTkgMTkuMzU1NCAxMC45MjE3QzE5LjA1MTcgMTAuNzk3NiAxOC42OTM0IDEwLjg0OTEgMTguNDc0NyAxMS4wOTM3TDE2LjI4MzEgMTMuNTQ0NkMxNi4wNDggMTMuODA3NSAxNi4wNDggMTQuMjA1MSAxNi4yODMxIDE0LjQ2OEwxOC40NjYgMTYuOTA5OUMxOC42ODUgMTcuMTU0OSAxOS4wNDQxIDE3LjIwNjIgMTkuMzQ4MiAxNy4wODEzQzE5LjgzNSAxNi44ODEyIDIwLjM2ODEgMTYuNzcwOSAyMC45MjcxIDE2Ljc3MDlDMjMuMjIyNSAxNi43NzA5IDI1LjA4MzMgMTguNjMxNyAyNS4wODMzIDIwLjkyNzFDMjUuMDgzMyAyMy4yMjI1IDIzLjIyMjUgMjUuMDgzNCAyMC45MjcxIDI1LjA4MzRDMTguNjMxNiAyNS4wODM0IDE2Ljc3MDggMjMuMjIyNSAxNi43NzA4IDIwLjkyNzFDMTYuNzcwOCAyMC4zMjc2IDE2Ljg5NzggMTkuNzU3NyAxNy4xMjYyIDE5LjI0MjlDMTcuMjQ5NSAxOC45NjUgMTcuMjIzNSAxOC42MzUgMTcuMDIwNiAxOC40MDg2TDE0LjIwNjUgMTUuMjY5NEMxNC4wNzUxIDE1LjEyMjggMTMuODg3NSAxNS4wMzkxIDEzLjY5MDcgMTUuMDM5MUgxMS42MzUyQzExLjMxOTEgMTUuMDM5MSAxMS4wNDg4IDE1LjI1NTggMTAuOTMwOSAxNS41NDlDMTAuMzE2NyAxNy4wNzczIDguODIwODMgMTguMTU2MyA3LjA3MjkxIDE4LjE1NjNDNC43Nzc0NyAxOC4xNTYzIDIuOTE2NjYgMTYuMjk1NSAyLjkxNjY2IDE0QzIuOTE2NjYgMTEuNzA0NiA0Ljc3NzQ3IDkuODQzNzcgNy4wNzI5MSA5Ljg0Mzc3QzguODIwODMgOS44NDM3NyAxMC4zMTY3IDEwLjkyMjggMTAuOTMwOSAxMi40NTFDMTEuMDQ4OCAxMi43NDQzIDExLjMxOTEgMTIuOTYxIDExLjYzNTIgMTIuOTYxSDEzLjY5MTRDMTMuODg3OCAxMi45NjEgMTQuMDc1IDEyLjg3NzYgMTQuMjA2NCAxMi43MzE1TDE3LjAyMzIgOS42MDAxOUMxNy4yMjcyIDkuMzczNDIgMTcuMjUzMyA5LjA0MjEyIDE3LjEyOTEgOC43NjM1NEMxNi44OTg4IDguMjQ3MDUgMTYuNzcwOCA3LjY3NDk0IDE2Ljc3MDggNy4wNzI5NEMxNi43NzA4IDQuNzc3NSAxOC42MzE2IDIuOTE2NjkgMjAuOTI3MSAyLjkxNjY5QzIzLjIyMjUgMi45MTY2OSAyNS4wODMzIDQuNzc3NSAyNS4wODMzIDcuMDcyOTRaTTIzLjAwNTIgNy4wNzI5NEMyMy4wMDUyIDguMjIwNjUgMjIuMDc0OCA5LjE1MTA2IDIwLjkyNzEgOS4xNTEwNkMxOS43Nzk0IDkuMTUxMDYgMTguODQ4OSA4LjIyMDY1IDE4Ljg0ODkgNy4wNzI5NEMxOC44NDg5IDUuOTI1MjIgMTkuNzc5NCA0Ljk5NDgxIDIwLjkyNzEgNC45OTQ4MUMyMi4wNzQ4IDQuOTk0ODEgMjMuMDA1MiA1LjkyNTIyIDIzLjAwNTIgNy4wNzI5NFpNOS4xNTEwMyAxNEM5LjE1MTAzIDE1LjE0NzcgOC4yMjA2MiAxNi4wNzgxIDcuMDcyOTEgMTYuMDc4MUM1LjkyNTE5IDE2LjA3ODEgNC45OTQ3OCAxNS4xNDc3IDQuOTk0NzggMTRDNC45OTQ3OCAxMi44NTIzIDUuOTI1MTkgMTEuOTIxOSA3LjA3MjkxIDExLjkyMTlDOC4yMjA2MiAxMS45MjE5IDkuMTUxMDMgMTIuODUyMyA5LjE1MTAzIDE0Wk0yMC45MjcxIDIzLjAwNTJDMjIuMDc0OCAyMy4wMDUyIDIzLjAwNTIgMjIuMDc0OCAyMy4wMDUyIDIwLjkyNzFDMjMuMDA1MiAxOS43Nzk0IDIyLjA3NDggMTguODQ5IDIwLjkyNzEgMTguODQ5QzE5Ljc3OTQgMTguODQ5IDE4Ljg0ODkgMTkuNzc5NCAxOC44NDg5IDIwLjkyNzFDMTguODQ4OSAyMi4wNzQ4IDE5Ljc3OTQgMjMuMDA1MiAyMC45MjcxIDIzLjAwNTJaIiBjbGlwLXJ1bGU9ImV2ZW5vZGQiIGZpbGwtcnVsZT0iZXZlbm9kZCIvPiYjeGE7PC9zdmc+;" parent="g7Od-292g7PqaHPzFKWb-1" vertex="1">
          <mxGeometry x="825" y="270" width="28" height="28" as="geometry" />
        </mxCell>
        <mxCell id="eo5y0pHy00kHHX3OXUo5-0" value="Platform router" style="shape=image;verticalLabelPosition=bottom;labelBackgroundColor=default;verticalAlign=top;aspect=fixed;imageAspect=0;image=data:image/svg+xml,PHN2ZyB4bWxucz0iaHR0cDovL3d3dy53My5vcmcvMjAwMC9zdmciIGZpbGw9Im5vbmUiIHZpZXdCb3g9IjAgMCAzMiAzMiIgaGVpZ2h0PSIzMiIgd2lkdGg9IjMyIj4mI3hhOzxwYXRoIGZpbGw9IiMwMDc3RkYiIGQ9Ik0zLjMxNDI4IDE2QzMuMzE0MjggOC45OTM4NyA4Ljk5Mzg3IDMuMzE0MjggMTYgMy4zMTQyOEMyMy4wMDYxIDMuMzE0MjggMjguNjg1NyA4Ljk5Mzg3IDI4LjY4NTcgMTZDMjguNjg1NyAyMy4wMDYxIDIzLjAwNjEgMjguNjg1NyAxNiAyOC42ODU3QzguOTkzODcgMjguNjg1NyAzLjMxNDI4IDIzLjAwNjEgMy4zMTQyOCAxNlpNMTYgMS4yNTcxNEM3Ljg1Nzc0IDEuMjU3MTQgMS4yNTcxNCA3Ljg1Nzc0IDEuMjU3MTQgMTZDMS4yNTcxNCAyNC4xNDIzIDcuODU3NzQgMzAuNzQyOSAxNiAzMC43NDI5QzI0LjE0MjMgMzAuNzQyOSAzMC43NDI5IDI0LjE0MjMgMzAuNzQyOSAxNkMzMC43NDI5IDcuODU3NzQgMjQuMTQyMyAxLjI1NzE0IDE2IDEuMjU3MTRaTTE5LjUxNzMgNy4zMjYyNUMxOS44NzQzIDcuNjYxMSAxOS44ODgxIDguMjE3NTYgMTkuNTQ4MSA4LjU2OTE1QzE5LjIwOCA4LjkyMDczIDE4LjY0MjggOC45MzQzMSAxOC4yODU3IDguNTk5NDZMMTYuODkyOSA3LjUwMTgzVjE4LjkzMDRMMTYuODkyOCAxOC45MzlWMjQuNDk4MkwxOC4yODU3IDIzLjQwMDVDMTguNjQyOCAyMy4wNjU3IDE5LjIwOCAyMy4wNzkzIDE5LjU0OCAyMy40MzA5QzE5Ljg4ODEgMjMuNzgyNCAxOS44NzQzIDI0LjMzODkgMTkuNTE3MyAyNC42NzM3TDE2LjYxNTggMjcuMTg2MUMxNi4yNzA5IDI3LjUwOTQgMTUuNzI5MSAyNy41MDk0IDE1LjM4NDIgMjcuMTg2MUwxMi40ODI4IDI0LjY3MzdDMTIuMTI1NyAyNC4zMzg5IDEyLjExMTkgMjMuNzgyNCAxMi40NTIgMjMuNDMwOUMxMi43OTIgMjMuMDc5MyAxMy4zNTcyIDIzLjA2NTcgMTMuNzE0MyAyMy40MDA1TDE1LjEwNzEgMjQuNDk4MkwxNS4xMDcxIDEzLjA2OTZMMTUuMTA3MiAxMy4wNjA5VjcuNTAxODNMMTMuNzE0MyA4LjU5OTQ2QzEzLjM1NzIgOC45MzQzMSAxMi43OTIgOC45MjA3MyAxMi40NTIgOC41NjkxNUMxMi4xMTE5IDguMjE3NTYgMTIuMTI1NyA3LjY2MTEgMTIuNDgyOCA3LjMyNjI1TDE1LjM4NDMgNC44MTM5NUMxNS43MjkxIDQuNDkwNTkgMTYuMjcxIDQuNDkwNTkgMTYuNjE1OCA0LjgxMzk1TDE5LjUxNzMgNy4zMjYyNVpNMTAuMDk3NSAxOS45MTM4QzEwLjQ0OTEgMjAuMjUzOSAxMS4wMDU2IDIwLjI0MDEgMTEuMzQwNCAxOS44ODNMMTMuODUyNyAxNi45ODE2QzE0LjE3NjEgMTYuNjM2NyAxNC4xNzYxIDE2LjA5NDkgMTMuODUyNyAxNS43NUwxMS4zNDA0IDEyLjg0ODVDMTEuMDA1NiAxMi40OTE0IDEwLjQ0OTEgMTIuNDc3NyAxMC4wOTc1IDEyLjgxNzdDOS43NDU5NCAxMy4xNTc4IDkuNzMyMzYgMTMuNzIzIDEwLjA2NzIgMTQuMDgwMUwxMS4xNjQ4IDE1LjQ3MjlMNS40NTA1NCAxNS40NzI5QzQuOTY1MDIgMTUuNDcyOSA0LjU3MTQyIDE1Ljg3MjcgNC41NzE0MiAxNi4zNjU4QzQuNTcxNDIgMTYuODU4OSA0Ljk2NTAxIDE3LjI1ODcgNS40NTA1NCAxNy4yNTg3TDExLjE2NDggMTcuMjU4N0wxMC4wNjcyIDE4LjY1MTVDOS43MzIzNiAxOS4wMDg2IDkuNzQ1OTQgMTkuNTczNyAxMC4wOTc1IDE5LjkxMzhaTTIwLjY2MzQgMTIuODQ4NUMyMC45OTgyIDEyLjQ5MTQgMjEuNTU0NyAxMi40Nzc3IDIxLjkwNjMgMTIuODE3N0MyMi4yNTc5IDEzLjE1NzggMjIuMjcxNSAxMy43MjMgMjEuOTM2NiAxNC4wOEwyMC44MzkgMTUuNDcyOUgyNi41NTMzQzI3LjAzODggMTUuNDcyOSAyNy40MzI0IDE1Ljg3MjYgMjcuNDMyNCAxNi4zNjU4QzI3LjQzMjQgMTYuODU4OSAyNy4wMzg4IDE3LjI1ODYgMjYuNTUzMyAxNy4yNTg2SDIwLjgzOUwyMS45MzY2IDE4LjY1MTVDMjIuMjcxNSAxOS4wMDg2IDIyLjI1NzkgMTkuNTczNyAyMS45MDYzIDE5LjkxMzhDMjEuNTU0NyAyMC4yNTM5IDIwLjk5ODIgMjAuMjQwMSAyMC42NjM0IDE5Ljg4M0wxOC4xNTExIDE2Ljk4MTVDMTcuODI3NyAxNi42MzY3IDE3LjgyNzcgMTYuMDk0OCAxOC4xNTExIDE1Ljc1TDIwLjY2MzQgMTIuODQ4NVoiIGNsaXAtcnVsZT0iZXZlbm9kZCIgZmlsbC1ydWxlPSJldmVub2RkIi8+JiN4YTs8L3N2Zz4=;fontSize=16;fontFamily=VK Sans Display;fontSource=https%3A%2F%2Ffonts.googleapis.com%2Fcss%3Ffamily%3DArchitects%2BDaughter;" parent="g7Od-292g7PqaHPzFKWb-1" vertex="1">
          <mxGeometry x="140" y="220" width="40" height="40" as="geometry" />
        </mxCell>
        <mxCell id="Gb6BnmyFKJlp2sSAeHPV-0" value="BGP router" style="shape=image;verticalLabelPosition=bottom;labelBackgroundColor=default;verticalAlign=top;aspect=fixed;imageAspect=0;image=data:image/svg+xml,PHN2ZyB4bWxucz0iaHR0cDovL3d3dy53My5vcmcvMjAwMC9zdmciIGZpbGw9Im5vbmUiIHZpZXdCb3g9IjAgMCAzMiAzMiIgaGVpZ2h0PSIzMiIgd2lkdGg9IjMyIj4mI3hhOzxwYXRoIGZpbGw9IiMyMTIxMjEiIGQ9Ik0zLjMxNDI4IDE2QzMuMzE0MjggOC45OTM4NyA4Ljk5Mzg3IDMuMzE0MjggMTYgMy4zMTQyOEMyMy4wMDYxIDMuMzE0MjggMjguNjg1NyA4Ljk5Mzg3IDI4LjY4NTcgMTZDMjguNjg1NyAyMy4wMDYxIDIzLjAwNjEgMjguNjg1NyAxNiAyOC42ODU3QzguOTkzODcgMjguNjg1NyAzLjMxNDI4IDIzLjAwNjEgMy4zMTQyOCAxNlpNMTYgMS4yNTcxNEM3Ljg1Nzc0IDEuMjU3MTQgMS4yNTcxNCA3Ljg1Nzc0IDEuMjU3MTQgMTZDMS4yNTcxNCAyNC4xNDIzIDcuODU3NzQgMzAuNzQyOSAxNiAzMC43NDI5QzI0LjE0MjMgMzAuNzQyOSAzMC43NDI5IDI0LjE0MjMgMzAuNzQyOSAxNkMzMC43NDI5IDcuODU3NzQgMjQuMTQyMyAxLjI1NzE0IDE2IDEuMjU3MTRaTTE5LjUxNzMgNy4zMjYyNUMxOS44NzQzIDcuNjYxMSAxOS44ODgxIDguMjE3NTYgMTkuNTQ4MSA4LjU2OTE1QzE5LjIwOCA4LjkyMDczIDE4LjY0MjggOC45MzQzMSAxOC4yODU3IDguNTk5NDZMMTYuODkyOSA3LjUwMTgzVjE4LjkzMDRMMTYuODkyOCAxOC45MzlWMjQuNDk4MkwxOC4yODU3IDIzLjQwMDVDMTguNjQyOCAyMy4wNjU3IDE5LjIwOCAyMy4wNzkzIDE5LjU0OCAyMy40MzA5QzE5Ljg4ODEgMjMuNzgyNCAxOS44NzQzIDI0LjMzODkgMTkuNTE3MyAyNC42NzM3TDE2LjYxNTggMjcuMTg2MUMxNi4yNzA5IDI3LjUwOTQgMTUuNzI5MSAyNy41MDk0IDE1LjM4NDIgMjcuMTg2MUwxMi40ODI4IDI0LjY3MzdDMTIuMTI1NyAyNC4zMzg5IDEyLjExMTkgMjMuNzgyNCAxMi40NTIgMjMuNDMwOUMxMi43OTIgMjMuMDc5MyAxMy4zNTcyIDIzLjA2NTcgMTMuNzE0MyAyMy40MDA1TDE1LjEwNzEgMjQuNDk4MkwxNS4xMDcxIDEzLjA2OTZMMTUuMTA3MiAxMy4wNjA5VjcuNTAxODNMMTMuNzE0MyA4LjU5OTQ2QzEzLjM1NzIgOC45MzQzMSAxMi43OTIgOC45MjA3MyAxMi40NTIgOC41NjkxNUMxMi4xMTE5IDguMjE3NTYgMTIuMTI1NyA3LjY2MTEgMTIuNDgyOCA3LjMyNjI1TDE1LjM4NDMgNC44MTM5NUMxNS43MjkxIDQuNDkwNTkgMTYuMjcxIDQuNDkwNTkgMTYuNjE1OCA0LjgxMzk1TDE5LjUxNzMgNy4zMjYyNVpNMTAuMDk3NSAxOS45MTM4QzEwLjQ0OTEgMjAuMjUzOSAxMS4wMDU2IDIwLjI0MDEgMTEuMzQwNCAxOS44ODNMMTMuODUyNyAxNi45ODE2QzE0LjE3NjEgMTYuNjM2NyAxNC4xNzYxIDE2LjA5NDkgMTMuODUyNyAxNS43NUwxMS4zNDA0IDEyLjg0ODVDMTEuMDA1NiAxMi40OTE0IDEwLjQ0OTEgMTIuNDc3NyAxMC4wOTc1IDEyLjgxNzdDOS43NDU5NCAxMy4xNTc4IDkuNzMyMzYgMTMuNzIzIDEwLjA2NzIgMTQuMDgwMUwxMS4xNjQ4IDE1LjQ3MjlMNS40NTA1NCAxNS40NzI5QzQuOTY1MDIgMTUuNDcyOSA0LjU3MTQyIDE1Ljg3MjcgNC41NzE0MiAxNi4zNjU4QzQuNTcxNDIgMTYuODU4OSA0Ljk2NTAxIDE3LjI1ODcgNS40NTA1NCAxNy4yNTg3TDExLjE2NDggMTcuMjU4N0wxMC4wNjcyIDE4LjY1MTVDOS43MzIzNiAxOS4wMDg2IDkuNzQ1OTQgMTkuNTczNyAxMC4wOTc1IDE5LjkxMzhaTTIwLjY2MzQgMTIuODQ4NUMyMC45OTgyIDEyLjQ5MTQgMjEuNTU0NyAxMi40Nzc3IDIxLjkwNjMgMTIuODE3N0MyMi4yNTc5IDEzLjE1NzggMjIuMjcxNSAxMy43MjMgMjEuOTM2NiAxNC4wOEwyMC44MzkgMTUuNDcyOUgyNi41NTMzQzI3LjAzODggMTUuNDcyOSAyNy40MzI0IDE1Ljg3MjYgMjcuNDMyNCAxNi4zNjU4QzI3LjQzMjQgMTYuODU4OSAyNy4wMzg4IDE3LjI1ODYgMjYuNTUzMyAxNy4yNTg2SDIwLjgzOUwyMS45MzY2IDE4LjY1MTVDMjIuMjcxNSAxOS4wMDg2IDIyLjI1NzkgMTkuNTczNyAyMS45MDYzIDE5LjkxMzhDMjEuNTU0NyAyMC4yNTM5IDIwLjk5ODIgMjAuMjQwMSAyMC42NjM0IDE5Ljg4M0wxOC4xNTExIDE2Ljk4MTVDMTcuODI3NyAxNi42MzY3IDE3LjgyNzcgMTYuMDk0OCAxOC4xNTExIDE1Ljc1TDIwLjY2MzQgMTIuODQ4NVoiIGNsaXAtcnVsZT0iZXZlbm9kZCIgZmlsbC1ydWxlPSJldmVub2RkIi8+JiN4YTs8L3N2Zz4=;fontSize=16;fontFamily=VK Sans Display;fontSource=https%3A%2F%2Ffonts.googleapis.com%2Fcss%3Ffamily%3DArchitects%2BDaughter;" parent="g7Od-292g7PqaHPzFKWb-1" vertex="1">
          <mxGeometry x="921" y="339" width="40" height="40" as="geometry" />
        </mxCell>
        <mxCell id="6rGvCTn5wgqHF6M9ZTmz-0" value="Advanced router" style="shape=image;verticalLabelPosition=bottom;labelBackgroundColor=default;verticalAlign=top;aspect=fixed;imageAspect=0;image=data:image/svg+xml,PHN2ZyB4bWxucz0iaHR0cDovL3d3dy53My5vcmcvMjAwMC9zdmciIGZpbGw9Im5vbmUiIHZpZXdCb3g9IjAgMCAzMiAzMiIgaGVpZ2h0PSIzMiIgd2lkdGg9IjMyIj4mI3hhOzxwYXRoIGZpbGw9IiNFMTg4RDAiIGQ9Ik0zLjMxNDI4IDE2QzMuMzE0MjggOC45OTM4NyA4Ljk5Mzg3IDMuMzE0MjggMTYgMy4zMTQyOEMyMy4wMDYxIDMuMzE0MjggMjguNjg1NyA4Ljk5Mzg3IDI4LjY4NTcgMTZDMjguNjg1NyAyMy4wMDYxIDIzLjAwNjEgMjguNjg1NyAxNiAyOC42ODU3QzguOTkzODcgMjguNjg1NyAzLjMxNDI4IDIzLjAwNjEgMy4zMTQyOCAxNlpNMTYgMS4yNTcxNEM3Ljg1Nzc0IDEuMjU3MTQgMS4yNTcxNCA3Ljg1Nzc0IDEuMjU3MTQgMTZDMS4yNTcxNCAyNC4xNDIzIDcuODU3NzQgMzAuNzQyOSAxNiAzMC43NDI5QzI0LjE0MjMgMzAuNzQyOSAzMC43NDI5IDI0LjE0MjMgMzAuNzQyOSAxNkMzMC43NDI5IDcuODU3NzQgMjQuMTQyMyAxLjI1NzE0IDE2IDEuMjU3MTRaTTE5LjUxNzMgNy4zMjYyNUMxOS44NzQzIDcuNjYxMSAxOS44ODgxIDguMjE3NTYgMTkuNTQ4MSA4LjU2OTE1QzE5LjIwOCA4LjkyMDczIDE4LjY0MjggOC45MzQzMSAxOC4yODU3IDguNTk5NDZMMTYuODkyOSA3LjUwMTgzVjE4LjkzMDRMMTYuODkyOCAxOC45MzlWMjQuNDk4MkwxOC4yODU3IDIzLjQwMDVDMTguNjQyOCAyMy4wNjU3IDE5LjIwOCAyMy4wNzkzIDE5LjU0OCAyMy40MzA5QzE5Ljg4ODEgMjMuNzgyNCAxOS44NzQzIDI0LjMzODkgMTkuNTE3MyAyNC42NzM3TDE2LjYxNTggMjcuMTg2MUMxNi4yNzA5IDI3LjUwOTQgMTUuNzI5MSAyNy41MDk0IDE1LjM4NDIgMjcuMTg2MUwxMi40ODI4IDI0LjY3MzdDMTIuMTI1NyAyNC4zMzg5IDEyLjExMTkgMjMuNzgyNCAxMi40NTIgMjMuNDMwOUMxMi43OTIgMjMuMDc5MyAxMy4zNTcyIDIzLjA2NTcgMTMuNzE0MyAyMy40MDA1TDE1LjEwNzEgMjQuNDk4MkwxNS4xMDcxIDEzLjA2OTZMMTUuMTA3MiAxMy4wNjA5VjcuNTAxODNMMTMuNzE0MyA4LjU5OTQ2QzEzLjM1NzIgOC45MzQzMSAxMi43OTIgOC45MjA3MyAxMi40NTIgOC41NjkxNUMxMi4xMTE5IDguMjE3NTYgMTIuMTI1NyA3LjY2MTEgMTIuNDgyOCA3LjMyNjI1TDE1LjM4NDMgNC44MTM5NUMxNS43MjkxIDQuNDkwNTkgMTYuMjcxIDQuNDkwNTkgMTYuNjE1OCA0LjgxMzk1TDE5LjUxNzMgNy4zMjYyNVpNMTAuMDk3NSAxOS45MTM4QzEwLjQ0OTEgMjAuMjUzOSAxMS4wMDU2IDIwLjI0MDEgMTEuMzQwNCAxOS44ODNMMTMuODUyNyAxNi45ODE2QzE0LjE3NjEgMTYuNjM2NyAxNC4xNzYxIDE2LjA5NDkgMTMuODUyNyAxNS43NUwxMS4zNDA0IDEyLjg0ODVDMTEuMDA1NiAxMi40OTE0IDEwLjQ0OTEgMTIuNDc3NyAxMC4wOTc1IDEyLjgxNzdDOS43NDU5NCAxMy4xNTc4IDkuNzMyMzYgMTMuNzIzIDEwLjA2NzIgMTQuMDgwMUwxMS4xNjQ4IDE1LjQ3MjlMNS40NTA1NCAxNS40NzI5QzQuOTY1MDIgMTUuNDcyOSA0LjU3MTQyIDE1Ljg3MjcgNC41NzE0MiAxNi4zNjU4QzQuNTcxNDIgMTYuODU4OSA0Ljk2NTAxIDE3LjI1ODcgNS40NTA1NCAxNy4yNTg3TDExLjE2NDggMTcuMjU4N0wxMC4wNjcyIDE4LjY1MTVDOS43MzIzNiAxOS4wMDg2IDkuNzQ1OTQgMTkuNTczNyAxMC4wOTc1IDE5LjkxMzhaTTIwLjY2MzQgMTIuODQ4NUMyMC45OTgyIDEyLjQ5MTQgMjEuNTU0NyAxMi40Nzc3IDIxLjkwNjMgMTIuODE3N0MyMi4yNTc5IDEzLjE1NzggMjIuMjcxNSAxMy43MjMgMjEuOTM2NiAxNC4wOEwyMC44MzkgMTUuNDcyOUgyNi41NTMzQzI3LjAzODggMTUuNDcyOSAyNy40MzI0IDE1Ljg3MjYgMjcuNDMyNCAxNi4zNjU4QzI3LjQzMjQgMTYuODU4OSAyNy4wMzg4IDE3LjI1ODYgMjYuNTUzMyAxNy4yNTg2SDIwLjgzOUwyMS45MzY2IDE4LjY1MTVDMjIuMjcxNSAxOS4wMDg2IDIyLjI1NzkgMTkuNTczNyAyMS45MDYzIDE5LjkxMzhDMjEuNTU0NyAyMC4yNTM5IDIwLjk5ODIgMjAuMjQwMSAyMC42NjM0IDE5Ljg4M0wxOC4xNTExIDE2Ljk4MTVDMTcuODI3NyAxNi42MzY3IDE3LjgyNzcgMTYuMDk0OCAxOC4xNTExIDE1Ljc1TDIwLjY2MzQgMTIuODQ4NVoiIGNsaXAtcnVsZT0iZXZlbm9kZCIgZmlsbC1ydWxlPSJldmVub2RkIi8+JiN4YTs8L3N2Zz4=;fontSize=16;fontFamily=VK Sans Display;fontSource=https%3A%2F%2Ffonts.googleapis.com%2Fcss%3Ffamily%3DArchitects%2BDaughter;" parent="g7Od-292g7PqaHPzFKWb-1" vertex="1">
          <mxGeometry x="321" y="341" width="40" height="40" as="geometry" />
        </mxCell>
      </root>
    </mxGraphModel>
  </diagram>
</mxfile>
